<?xml version="1.0" encoding="UTF-8"?>
<svg width="62px" height="62px" viewBox="0 0 62 62" version="1.1" xmlns="http://www.w3.org/2000/svg" xmlns:xlink="http://www.w3.org/1999/xlink">
    <!-- Generator: Sketch 53.2 (72643) - https://sketchapp.com -->
    <title>book-contact-2 Copy 2</title>
    <desc>Created with Sketch.</desc>
    <g id="Page-1" stroke="none" stroke-width="1" fill="none" fill-rule="evenodd">
        <g id="book-contact-2-Copy-2" fill-rule="nonzero">
            <path d="M48.8972041,17.4675245 C49.1191722,17.6871982 49.4151295,17.8051282 49.7157112,17.8051282 C50.3515573,17.8051282 50.8717949,17.2871608 50.8717949,16.6489511 L50.8717949,6.24335665 C50.8717949,5.60514685 50.3538694,5.08717949 49.7157112,5.08717949 L39.310959,5.08717949 C38.8439012,5.08717949 38.4207748,5.36928672 38.2427378,5.80169698 C38.0623888,6.23179487 38.161812,6.72895104 38.4924518,7.05961771 L48.8972041,17.4675245 Z" id="Fill/home-1" fill="#78706A"></path>
            <polygon id="Path" fill="#C86151" points="5.08717949 23.5898947 5.08717949 61.0461538 22.8923077 61.0461538 22.8923077 38.1538462 38.1538462 38.1538462 38.1538462 61.0461538 55.9589744 61.0461538 55.9589744 23.5898947 30.5230769 -5.32907052e-14"></polygon>
            <path d="M60.6966193,26.1090918 C60.6864456,26.1023742 60.6813587,26.0844605 60.6711852,26.0732646 L31.4219038,0.322445044 C30.9361114,-0.107481681 30.1095013,-0.107481681 29.6237089,0.322445044 L0.374427556,26.0732646 C-0.0859306977,26.47856 -0.152059508,27.1458422 0.346449983,27.620553 C0.923805362,28.1288517 1.69954716,28.054958 2.15481858,27.6630978 C2.15990543,27.6608585 2.16753567,27.6586194 2.1726225,27.6563802 L30.524078,2.69823804 L58.8729903,27.6586194 C58.878077,27.6608585 58.8831638,27.6630978 58.8882507,27.665337 C59.3714997,28.0795892 60.1726756,28.0795892 60.6533811,27.665337 C60.658468,27.6630978 60.6660983,27.6608585 60.6711852,27.6586194 C61.1340869,27.2510846 61.1976721,26.5748457 60.6966193,26.1090918 Z" id="Path" fill="#59514B"></path>
        </g>
    </g>
</svg>