<svg width="1em" height="1em" viewBox="0 0 24 24" fill="none" xmlns="http://www.w3.org/2000/svg"><path d="M21.745 1.488a5.211 5.211 0 00-7.293 0l-2.577 2.537a1 1 0 001.403 1.426l2.577-2.537a3.211 3.211 0 014.487 0l.737.724a3.056 3.056 0 010 4.374l-5.154 5.074a3.211 3.211 0 01-4.487 0l-.736-.725a1 1 0 00-1.404 1.426l.737.725a5.211 5.211 0 007.293 0l5.154-5.075a5.056 5.056 0 000-7.224l-.737-.725z" fill="#0067C5"></path><path d="M2.255 22.512a5.211 5.211 0 007.293 0l2.577-2.538a1 1 0 10-1.403-1.425l-2.577 2.537a3.211 3.211 0 01-4.487 0l-.737-.724a3.056 3.056 0 010-4.374l5.154-5.074a3.211 3.211 0 014.487 0l.736.725a1 1 0 001.404-1.426l-.737-.725a5.211 5.211 0 00-7.293 0l-5.154 5.075a5.056 5.056 0 000 7.224l.737.725z" fill="#0067C5"></path></svg>