<?xml version="1.0" encoding="UTF-8"?>
<svg width="62px" height="51px" viewBox="0 0 62 51" version="1.1" xmlns="http://www.w3.org/2000/svg" xmlns:xlink="http://www.w3.org/1999/xlink">
    <!-- Generator: Sketch 53.2 (72643) - https://sketchapp.com -->
    <title>toolbox</title>
    <desc>Created with Sketch.</desc>
    <g id="Page-1" stroke="none" stroke-width="1" fill="none" fill-rule="evenodd">
        <g id="toolbox" fill-rule="nonzero">
            <path d="M30.5230769,23.26875 C24.2015407,23.26875 19.0769231,18.1312175 19.0769231,11.79375 C19.0769231,5.45628249 24.2015407,0.31875 30.5230769,0.31875 C36.8446131,0.31875 41.9692308,5.45628249 41.9692308,11.79375 C41.9692308,18.1312175 36.8446131,23.26875 30.5230769,23.26875 Z M30.5230769,20.71875 C35.4398273,20.71875 39.425641,16.7228914 39.425641,11.79375 C39.425641,6.86460861 35.4398273,2.86875 30.5230769,2.86875 C25.6063265,2.86875 21.6205128,6.86460861 21.6205128,11.79375 C21.6205128,16.7228914 25.6063265,20.71875 30.5230769,20.71875 Z" id="Oval" fill="#654A28"></path>
            <path d="M0,27.09375 L0,48.7687502 C0,49.4725502 0.621560839,50.0437502 1.38741259,50.0437502 L59.6587412,50.0437502 C60.424593,50.0437502 61.0461538,49.4725502 61.0461538,48.7687502 L61.0461538,27.09375 L0,27.09375 Z" id="Path" fill="#B26D14"></path>
            <path d="M0,11.79375 L0,25.81875 C0,26.52255 0.621560839,27.09375 1.38741259,27.09375 L59.6587412,27.09375 C60.424593,27.09375 61.0461538,26.52255 61.0461538,25.81875 L61.0461538,11.79375 L0,11.79375 Z" id="Path-Copy" fill="#D87F0A" transform="translate(30.523077, 19.443750) scale(-1, 1) rotate(-180.000000) translate(-30.523077, -19.443750) "></path>
            <rect id="Rectangle" fill="#FFBD66" x="25.4358974" y="24.54375" width="10.174359" height="7.65" rx="2.56"></rect>
        </g>
    </g>
</svg>