<?xml version="1.0" encoding="UTF-8"?>
<svg width="64px" height="64px" viewBox="0 0 64 64" version="1.1" xmlns="http://www.w3.org/2000/svg" xmlns:xlink="http://www.w3.org/1999/xlink">
    <!-- Generator: Sketch 58 (84663) - https://sketch.com -->
    <title>Group 14@1x</title>
    <desc>Created with Sketch.</desc>
    <defs>
        <rect id="path-1" x="0" y="0" width="64" height="64"></rect>
        <circle id="path-3" cx="32" cy="32" r="32"></circle>
    </defs>
    <g id="Desktop" stroke="none" stroke-width="1" fill="none" fill-rule="evenodd">
        <g id="GDPR-Personopplysning-forside" transform="translate(-590.000000, -3222.000000)">
            <g id="Group-14" transform="translate(590.000000, 3222.000000)">
                <g id="Group-5-Copy-2">
                    <g id="spotlight/-gjenstand-">
                        <mask id="mask-2" fill="white">
                            <use xlink:href="#path-1"></use>
                        </mask>
                        <g id="Background"></g>
                        <g id="spotlight/-element" mask="url(#mask-2)" fill-rule="evenodd" stroke-width="1">
                            <g id="🌈-60">
                                <mask id="mask-4" fill="white">
                                    <use xlink:href="#path-3"></use>
                                </mask>
                                <g id="Mask"></g>
                                <g id="NAV-Brand/farge/-Dyp-blå/-60" mask="url(#mask-4)" fill="#99C2E8">
                                    <polygon id="Fill-22" points="0 64 64 64 64 0 0 0"></polygon>
                                </g>
                            </g>
                        </g>
                    </g>
                </g>
                <g id="gjenstander/reise/koffert/Håndkoffert-B" transform="translate(13.000000, 17.000000)">
                    <g id="Group">
                        <path d="M36.136703,29 L1.86329703,29 C1.51140223,29 1.22580645,28.7055139 1.22580645,28.342665 L1.22580645,13.2660306 C1.22580645,12.9031817 1.51140223,12.6086957 1.86329703,12.6086957 L36.136703,12.6086957 C36.4885978,12.6086957 36.7741935,12.9031817 36.7741935,13.2660306 L36.7741935,28.342665 C36.7741935,28.7055139 36.4885978,29 36.136703,29" id="Fill-13" fill="#593A32"></path>
                        <polygon id="Fill-14" fill="#333333" points="1.22580645 17.6521739 36.7741935 17.6521739 36.7741935 14.5 1.22580645 14.5"></polygon>
                        <path d="M23.9032258,3.15217391 L22.682151,3.15217391 L22.682151,2.24440652 C22.682151,1.74149938 22.3097232,1.33397119 21.849378,1.33397119 L16.1512325,1.33397119 C15.6908873,1.33397119 15.3172384,1.74149938 15.3172384,2.24440652 L15.3172384,3.15217391 L14.0967742,3.15217391 L14.0967742,2.1156783 C14.0967742,0.947119542 14.9631268,0 16.0327883,0 L21.9672117,0 C23.0368732,0 23.9032258,0.947119542 23.9032258,2.1156783 L23.9032258,3.15217391 Z" id="Fill-15" fill="#333333"></path>
                        <path d="M37.3712253,16.9322174 C37.7183089,16.9322174 38,16.6497826 38,16.3017826 L38,3.7826087 C38,3.4346087 37.7183089,3.15217391 37.3712253,3.15217391 L0.628774717,3.15217391 C0.281691073,3.15217391 0,3.4346087 0,3.7826087 L0,16.3017826 C0,16.6497826 0.281691073,16.9322174 0.628774717,16.9322174 L37.3712253,16.9322174 Z" id="Fill-16" fill="#723B30"></path>
                        <path d="M17.1079679,19.5434783 C16.1239119,19.5434783 15.3225806,18.7815185 15.3225806,17.8450351 L15.3225806,16.8282456 C15.3225806,15.8917622 16.1239119,15.1304348 17.1079679,15.1304348 L20.8920321,15.1304348 C21.8767526,15.1304348 22.6774194,15.8917622 22.6774194,16.8282456 L22.6774194,17.8450351 C22.6774194,18.7815185 21.8767526,19.5434783 20.8920321,19.5434783 L17.1079679,19.5434783 Z" id="Fill-11" fill="#333333"></path>
                        <path d="M20.9249541,15.7608696 L17.0750459,15.7608696 C16.445786,15.7608696 15.9354839,16.2388554 15.9354839,16.8282657 L15.9354839,17.8462805 C15.9354839,18.4356908 16.445786,18.9130435 17.0750459,18.9130435 L20.9249541,18.9130435 C21.554214,18.9130435 22.0645161,18.4356908 22.0645161,17.8462805 L22.0645161,16.8282657 C22.0645161,16.2388554 21.554214,15.7608696 20.9249541,15.7608696" id="Fill-12" fill="#F79221"></path>
                    </g>
                </g>
            </g>
        </g>
    </g>
</svg>