
<!-- Generator: Adobe Illustrator 16.0.0, SVG Export Plug-In . SVG Version:
6.00 Build 0) -->
<svg contentScriptType="text/ecmascript" zoomAndPan="magnify"
     xmlns:xlink="http://www.w3.org/1999/xlink" contentStyleType="text/css"
     id="Outline_Version" enable-background="new 0 0 24 24" version="1.1"
     xml:space="preserve" width="24px" preserveAspectRatio="xMidYMid meet"
     viewBox="0 0 24 24" height="24px" xmlns="http://www.w3.org/2000/svg"
     x="0px" y="0px">
    <path fill="#0067c5"
          d="M23.5,10H1.707l3.396-3.396c0.195-0.195,0.195-0.512,0-0.707s-0.512-0.195-0.707,0l-4.249,4.249  c-0.047,0.047-0.084,0.103-0.109,0.163c-0.05,0.123-0.05,0.26,0,0.383c0.025,0.061,0.063,0.116,0.109,0.163l4.249,4.249  c0.098,0.098,0.226,0.146,0.354,0.146s0.256-0.049,0.354-0.146c0.195-0.195,0.195-0.512,0-0.707L1.707,11H23v6.5  c0,0.276,0.224,0.5,0.5,0.5s0.5-0.224,0.5-0.5v-7C24,10.224,23.776,10,23.5,10z"/></svg>
