<?xml version="1.0" encoding="UTF-8"?>
<svg width="24px" height="24px" viewBox="0 0 24 24" version="1.1" xmlns="http://www.w3.org/2000/svg" xmlns:xlink="http://www.w3.org/1999/xlink">
    <title>Outline/20-status/check-circle-1 Copy 2</title>
    <g id="Ny-retning" stroke="none" stroke-width="1" fill="none" fill-rule="evenodd">
        <g id="Ny-tekst-–-Medlemskap-i-folketrygden-–-Step-1-Copy-2" transform="translate(-393.000000, -734.000000)" fill="#3E3832">
            <g id="Combined-Shape" transform="translate(393.000000, 734.000000)">
                <path d="M9.49999995,4.99999997 C10.982,4.99999997 12.403,5.33299997 13.723,5.98799997 C13.97,6.11099998 14.071,6.41099998 13.948,6.65799998 C13.825,6.90499998 13.526,7.00699998 13.278,6.88299998 C12.098,6.29699998 10.827,5.99999997 9.49999995,5.99999997 C4.81299997,5.99999997 0.99999995,9.81299999 0.99999995,14.5 C0.99999995,19.187 4.81299997,23 9.49999995,23 C14.187,23 17.9999999,19.187 17.9999999,14.5 C17.9999999,13.864 17.928,13.226 17.786,12.605 C17.724,12.336 17.892,12.068 18.162,12.006 C18.425,11.943 18.699,12.112 18.761,12.382 C18.919,13.076 18.9999999,13.789 18.9999999,14.5 C18.9999999,19.738 14.738,24 9.49999995,24 C4.26199997,24 -5.00000006e-08,19.738 -5.00000006e-08,14.5 C-5.00000006e-08,9.26199999 4.26199997,4.99999997 9.49999995,4.99999997 Z M23.814,0.11099995 C24.0290001,0.283999951 24.0630001,0.598999952 23.89,0.813999953 L9.38999999,18.814 C9.29999999,18.924 9.16799999,18.992 9.02699999,19 L8.99999999,19 L8.99999999,19 C8.86799999,19 8.73999999,18.948 8.64599999,18.854 L3.64599997,13.854 C3.45099996,13.659 3.45099996,13.342 3.64599997,13.147 C3.84099997,12.952 4.15799997,12.952 4.35299997,13.147 L8.95899999,17.753 L23.111,0.186999951 C23.283,-0.0280000501 23.599,-0.0620000503 23.814,0.11099995 Z"></path>
            </g>
        </g>
    </g>
</svg>