<?xml version="1.0" encoding="UTF-8"?>
<svg width="62px" height="45px" viewBox="0 0 62 45" version="1.1" xmlns="http://www.w3.org/2000/svg" xmlns:xlink="http://www.w3.org/1999/xlink">
    <!-- Generator: Sketch 53.2 (72643) - https://sketchapp.com -->
    <title>box-2</title>
    <desc>Created with Sketch.</desc>
    <g id="Page-1" stroke="none" stroke-width="1" fill="none" fill-rule="evenodd">
        <g id="box-2" fill-rule="nonzero">
            <path d="M6.35897426,26.0357143 L54.6871796,26.0357143 C55.3892104,26.0357143 55.9589745,25.4597143 55.9589745,24.75 C55.9589745,24.0428571 55.3892104,23.4642857 54.6871796,23.4642857 L6.35897426,23.4642857 C5.65694348,23.4642857 5.08717938,24.0428571 5.08717938,24.75 C5.08717938,25.4597143 5.65694348,26.0357143 6.35897426,26.0357143 Z" id="Path-Copy" fill="#E7E9E9"></path>
            <path d="M6.35897426,20.8928571 L54.6871796,20.8928571 C55.3892104,20.8928571 55.9589745,20.3168571 55.9589745,19.6071429 C55.9589745,18.9 55.3892104,18.3214286 54.6871796,18.3214286 L6.35897426,18.3214286 C5.65694348,18.3214286 5.08717938,18.9 5.08717938,19.6071429 C5.08717938,20.3168571 5.65694348,20.8928571 6.35897426,20.8928571 Z" id="Path-Copy-3" fill="#E7E9E9"></path>
            <path d="M6.35897426,23.4642857 L54.6871796,23.4642857 C55.3892104,23.4642857 55.9589745,22.8882857 55.9589745,22.1785714 C55.9589745,21.4714286 55.3892104,20.8928571 54.6871796,20.8928571 L6.35897426,20.8928571 C5.65694348,20.8928571 5.08717938,21.4714286 5.08717938,22.1785714 C5.08717938,22.8882857 5.65694348,23.4642857 6.35897426,23.4642857 Z" id="Path-Copy-2" fill="#C6C2BF"></path>
            <path d="M6.35897426,18.3214286 L54.6871796,18.3214286 C55.3892104,18.3214286 55.9589745,17.7454286 55.9589745,17.0357143 C55.9589745,16.3285714 55.3892104,15.75 54.6871796,15.75 L6.35897426,15.75 C5.65694348,15.75 5.08717938,16.3285714 5.08717938,17.0357143 C5.08717938,17.7454286 5.65694348,18.3214286 6.35897426,18.3214286 Z" id="Path-Copy-4" fill="#C6C2BF"></path>
            <path d="M6.35897426,15.75 L54.6871796,15.75 C55.3892104,15.75 55.9589745,15.174 55.9589745,14.4642857 C55.9589745,13.7571429 55.3892104,13.1785714 54.6871796,13.1785714 L6.35897426,13.1785714 C5.65694348,13.1785714 5.08717938,13.7571429 5.08717938,14.4642857 C5.08717938,15.174 5.65694348,15.75 6.35897426,15.75 Z" id="Path-Copy-6" fill="#E7E9E9"></path>
            <path d="M6.35897426,13.1785714 L54.6871796,13.1785714 C55.3892104,13.1785714 55.9589745,12.6025714 55.9589745,11.8928571 C55.9589745,11.1857143 55.3892104,10.6071429 54.6871796,10.6071429 L6.35897426,10.6071429 C5.65694348,10.6071429 5.08717938,11.1857143 5.08717938,11.8928571 C5.08717938,12.6025714 5.65694348,13.1785714 6.35897426,13.1785714 Z" id="Path-Copy-5" fill="#C6C2BF"></path>
            <path d="M6.35897426,10.6071429 L54.6871796,10.6071429 C55.3892104,10.6071429 55.9589745,10.0311429 55.9589745,9.32142857 C55.9589745,8.61428571 55.3892104,8.03571429 54.6871796,8.03571429 L6.35897426,8.03571429 C5.65694348,8.03571429 5.08717938,8.61428571 5.08717938,9.32142857 C5.08717938,10.0311429 5.65694348,10.6071429 6.35897426,10.6071429 Z" id="Path-Copy-8" fill="#E7E9E9"></path>
            <path d="M6.35897426,8.03571429 L54.6871796,8.03571429 C55.3892104,8.03571429 55.9589745,7.45971429 55.9589745,6.75 C55.9589745,6.04285714 55.3892104,5.46428571 54.6871796,5.46428571 L6.35897426,5.46428571 C5.65694348,5.46428571 5.08717938,6.04285714 5.08717938,6.75 C5.08717938,7.45971429 5.65694348,8.03571429 6.35897426,8.03571429 Z" id="Path-Copy-7" fill="#C6C2BF"></path>
            <path d="M6.35897426,5.46428571 L54.6871796,5.46428571 C55.3892104,5.46428571 55.9589745,4.88828571 55.9589745,4.17857143 C55.9589745,3.47142857 55.3892104,2.89285714 54.6871796,2.89285714 L6.35897426,2.89285714 C5.65694348,2.89285714 5.08717938,3.47142857 5.08717938,4.17857143 C5.08717938,4.88828571 5.65694348,5.46428571 6.35897426,5.46428571 Z" id="Path-Copy-10" fill="#E7E9E9"></path>
            <path d="M6.35897426,2.89285714 L54.6871796,2.89285714 C55.3892104,2.89285714 55.9589745,2.31685714 55.9589745,1.60714286 C55.9589745,0.9 55.3892104,0.321428571 54.6871796,0.321428571 L6.35897426,0.321428571 C5.65694348,0.321428571 5.08717938,0.9 5.08717938,1.60714286 C5.08717938,2.31685714 5.65694348,2.89285714 6.35897426,2.89285714 Z" id="Path-Copy-9" fill="#C6C2BF"></path>
            <path d="M59.7743591,20.8928571 L41.9692308,20.8928571 C41.2672,20.8928571 40.6974359,21.4714286 40.6974359,22.1785714 L40.6974359,26.0357143 L20.3487179,26.0357143 L20.3487179,22.1785714 C20.3487179,21.4714286 19.7789538,20.8928571 19.0769231,20.8928571 L1.27179475,20.8928571 C0.569763976,20.8928571 -1.28000011e-07,21.4714286 -1.28000011e-07,22.1785714 L-1.28000011e-07,42.7500002 C-1.28000011e-07,43.4597144 0.569763976,44.0357144 1.27179475,44.0357144 L59.7743591,44.0357144 C60.4763899,44.0357144 61.046154,43.4597144 61.046154,42.7500002 L61.046154,22.1785714 C61.046154,21.4714286 60.4763899,20.8928571 59.7743591,20.8928571 Z" id="Fill/box-2" fill="#669DB4"></path>
        </g>
    </g>
</svg>