<?xml version="1.0" encoding="UTF-8"?>
<svg width="34px" height="34px" viewBox="0 0 34 34" version="1.1" xmlns="http://www.w3.org/2000/svg" xmlns:xlink="http://www.w3.org/1999/xlink">
    <!-- Generator: Sketch 56 (81588) - https://sketch.com -->
    <title>Group 18</title>
    <desc>Created with Sketch.</desc>
    <g id="Page-1" stroke="none" stroke-width="1" fill="none" fill-rule="evenodd">
        <g id="GDPR-Personopplysning" transform="translate(-308.000000, -5300.000000)">
            <g id="Group-18" transform="translate(308.000000, 5300.000000)">
                <path d="M30.4583335,21.2489376 L3.54166668,21.2489376 C1.58808334,21.2489376 -7.46069873e-14,22.8384376 -7.46069873e-14,24.7906043 L-7.46069873e-14,30.457271 C-7.46069873e-14,32.4094376 1.58808334,33.9989376 3.54166668,33.9989376 L30.4583335,33.9989376 C32.4119168,33.9989376 34,32.4108543 34,30.457271 L34,24.7906043 C34,22.8384376 32.4119168,21.2489376 30.4583335,21.2489376 Z" id="Path" fill="#3E3832" fill-rule="nonzero"></path>
                <path d="M26.2083334,25.4989376 C26.5979168,25.4989376 26.9166668,25.8162709 26.9166668,26.2072709 C26.9166668,26.5996876 26.5979168,26.9156043 26.2083334,26.9156043 C25.8159168,26.9156043 25.5000001,26.5996876 25.5000001,26.2072709 C25.5000001,25.8148543 25.8159168,25.4989376 26.2083334,25.4989376 Z" id="Path" fill="#E7E9E9" fill-rule="nonzero"></path>
                <path d="M29.0416668,29.7489376 L4.95833335,29.7489376 C4.56875002,29.7489376 4.25000002,29.4316043 4.25000002,29.0406043 C4.25000002,28.6496043 4.56875002,28.332271 4.95833335,28.332271 L29.0416668,28.332271 C29.4312501,28.332271 29.75,28.651021 29.75,29.0406043 C29.75,29.4316043 29.4312501,29.7489376 29.0416668,29.7489376 Z" id="Path" fill="#6AB889" fill-rule="nonzero"></path>
                <path d="M29.0416668,26.9156043 C28.6492501,26.9156043 28.3333335,26.5996876 28.3333335,26.2072709 C28.3333335,25.8162709 28.6492501,25.4989376 29.0416668,25.4989376 C29.4312501,25.4989376 29.7500001,25.8162709 29.7500001,26.2072709 C29.7500001,26.5996876 29.4312501,26.9156043 29.0416668,26.9156043 Z" id="Path" fill="#6AB889" fill-rule="nonzero"></path>
                <path d="M9.71018758,8.99902087 L16.2920209,2.41860418 L16.2920209,17.7072709 C16.2920209,18.0982709 16.6107709,18.4156042 17.0003543,18.4156042 C17.3899376,18.4156042 17.7086876,18.0982709 17.7086876,17.7072709 L17.7086876,2.41860418 L24.290521,9.00043754 C24.4293543,9.13927087 24.609271,9.20727087 24.792021,9.20727087 C24.9719376,9.20727087 25.1546876,9.13927087 25.293521,9.00043754 C25.569771,8.72418754 25.569771,8.2751042 25.293521,7.9988542 L17.5018543,0.208604168 C17.4352709,0.140604167 17.3573543,0.089604167 17.2695209,0.0541875002 C17.0966876,-0.0180625001 16.9026043,-0.0180625001 16.7283543,0.0541875002 C16.6419376,0.089604167 16.5626043,0.142020834 16.4988543,0.207187501 L8.70718757,7.99743753 C8.43093757,8.27368753 8.43093757,8.72277087 8.70718757,8.99902087 C8.98485424,9.27668754 9.43252091,9.27668754 9.71018758,8.99902087 Z" id="Path" fill="#38A161"></path>
            </g>
        </g>
    </g>
</svg>