<svg xmlns="http://www.w3.org/2000/svg" xmlns:xlink="http://www.w3.org/1999/xlink" width="126" height="97" viewBox="0 0 126 97">
    <defs>
        <path id="a" d="M23.307 0c12.823.022 23.2 12.254 23.178 27.323-.019 12.681.023 27.8-22.228 28.221-.166.007-.344.007-.515.01-.175.002-.34.01-.519.01-.231 0-.403-.01-.585-.011-.164-.005-.333-.005-.492-.012C-.104 55.046-.018 39.928.001 27.247.07 12.178 10.484-.021 23.307 0z"/>
        <path id="c" d="M14.319.957C8.845 3.627 0 11.44 0 18.674v23.413h38c6.627 0 12-5.373 12-12V18.674C50 10.867 39.518 2.386 34.226.422c-3.333 4.01-14.44 5.337-19.907.535z"/>
        <path id="e" d="M39.267.479C45.264 3.639 54 11.353 54 18.523V31c0 6.627-5.373 12-12 12H0V18.523C0 11.64 7.913 4.256 13.792.879 14.87 2.71 17.718 10 26.383 10c8.602 0 12.709-7.71 12.884-9.521z"/>
        <path id="g" d="M.075 29.104c.032-4.818 1.345-8.462 3.94-10.933 0 0-.939 4.237-.286 3.356 3.694-4.975 13.14-.574 16.689-6.994.446 3.534-4.032 4.6-4.032 4.6 3.57.69 6.664-.777 7.502-2.52.276 1.421.386 2.364-.854 3.335 4.388-.847 3.501-3.93 3.501-3.93.625 4.09 7.116 2.649 7.116 9.344l.219 5.888c0 .219 2.162 1.082 4.359.641-.068-.507.684-.968 2.255-1.383.22.192.36-1.389.425-4.743C41.18 10.326 32.65 0 20.909 0 9.704 0 .117 7.897.123 21.527c-.244 1.306-.047 7.678-.047 7.577z"/>
        <path id="i" d="M12.59 9.085c2.914 0 4.165.925 7.834 1.783 13.135 3.077 15.928-8.224 16.75-8.76 1.37-1.261 1.99.784 1.8 1.596-4.244 18.16-18.87 20.377-26.516 20.377C4.594 24.08-1.13 13.095.19 0c.504 2.718 1.404 11.914 6.687 10.111 4.15-1.416 2.801-1.026 5.714-1.026zM6.24 14.53c0 1.703 2.813 3.084 6.284 3.084 3.47 0 6.285-1.38 6.285-3.084 0-1.702-2.814-4.078-6.285-4.078s-6.285 2.376-6.285 4.078z"/>
        <path id="k" d="M17 5.56V13H0V5.56C0 3.43 2.777 1 4.636 0h7.728C14.24 1.018 17 3.455 17 5.56z"/>
    </defs>
    <g fill="none" fill-rule="evenodd">
        <g transform="translate(68.176 6)">
            <mask id="b" fill="#fff">
                <use xlink:href="#a"/>
            </mask>
            <use fill="#F5B773" xlink:href="#a"/>
            <g fill="#F6B873" mask="url(#b)">
                <path d="M-8.97-11.25h62v74h-62z"/>
            </g>
        </g>
        <path fill="#E7E5E2" d="M107.185 40.493c-.105-.202-4.449-2.328-6.288-15.128-8.395 6.421-25.393 3.7-28.865 7.15-.012.25-2.596 13.256 5.854 20.566 1.37 1.187 3.436 1.78 3.298 2.2-1.136.52-2.81 1.732-2.81 1.732S82.355 79.587 91.5 79.587c9.175 0 12.784-23.497 12.784-23.497s-2.548-1.11-2.342-2.082c.207-.973 3.952-5.865 3.952-5.865s2.825-1.062 4.393-2.372c1.568-1.31 1.256-4.132 0-4.994-1.266-.867-3.059-.298-3.102-.284z"/>
        <g transform="translate(66.81 54.39)">
            <mask id="d" fill="#fff">
                <use xlink:href="#c"/>
            </mask>
            <use fill="#D8A25D" xlink:href="#c"/>
            <g fill="#C1B5D0" mask="url(#d)">
                <path d="M-30.556 70.174h117v-96h-117z"/>
            </g>
        </g>
        <path fill="#FFF" d="M79.537 56.114c.965 1.617 5.304 9.668 11.701 14.627 6.354-4.883 11.935-13.538 11.935-15.045a24.291 24.291 0 0 0-1.932-1.045c-3.164 2.822-11.72 6.333-20.16.55-.993.523-1.544.913-1.544.913z"/>
        <g>
            <path fill="#D19E9C" fill-rule="nonzero" d="M90.108 45.574a2.415 2.415 0 0 1-.173.336 3.9 3.9 0 0 1-.636.801c-.927.9-2.245 1.35-4.068 1.104-.905-.122-1.544-.56-1.982-1.228a3.498 3.498 0 0 1-.508-1.285.458.458 0 0 0-.515-.388.45.45 0 0 0-.4.5c.056.427.242 1.037.646 1.653.576.878 1.443 1.473 2.632 1.633 2.114.286 3.718-.263 4.846-1.357.556-.539.878-1.08 1.022-1.462a.443.443 0 0 0-.273-.573.464.464 0 0 0-.591.266z"/>
            <path fill="#635E59" d="M80.26 38.188c.983.315 1.694-1.457 1.673-2.723-.004-.24-.094-1.347-.683-1.477-.588-.13-.98.377-1.04.467-.706 1.072-1.026 3.386.05 3.733M90.4 38.368c1.215.196 1.719-1.652 1.457-2.906-.05-.238-.364-1.328-1.08-1.386-.717-.058-1.083.493-1.134.59-.63 1.15-.573 3.488.757 3.702"/>
            <path fill="#D1BFA3" fill-rule="nonzero" d="M83.434 38.635a2.207 2.207 0 0 1-1.943.492c-.734-.1-1.23-.023-1.412.194-.714.851-.486 1.752.74 2.493.644.389 1.53.526 2 .324a.46.46 0 0 1 .6.225.436.436 0 0 1-.232.582c-.776.333-1.969.15-2.848-.382-1.666-1.006-2.047-2.51-.965-3.8.444-.528 1.222-.648 2.243-.51.072.015.098.02.13.025a1.308 1.308 0 0 0 1.078-.299.464.464 0 0 1 .642.033.432.432 0 0 1-.033.623z"/>
        </g>
        <g>
            <g fill="#E7E5E2">
                <path d="M17.44 43.963c.31-.083.485-.429.391-.78l-2.025-7.558c-.24-.895-1.087-1.45-1.884-1.237-.8.215-1.254 1.116-1.014 2.012l1.758 6.561c.241.9 1.086 1.454 1.888 1.24l.886-.238z"/>
                <path d="M20.718 53.495c-1.03.757 1.896 17.491 13.693 17.505 11.378.013 11.833-16.331 11.802-17.1-.522-.284-1.254-.524-1.923-.776.877-.166 2.394-.268 3.544-1.548C51.444 47.556 54 36.873 54 30.626 54 17.58 46.58 7 34.987 7 23.395 7 14 17.58 14 30.625c0 6.669 1.962 11.517 5.548 15.138 1.106 1.116 2.988 3.798 2.947 6.742-.596.371-1.157.619-1.777.99z"/>
            </g>
            <g transform="matrix(-1 0 0 1 60 53)">
                <mask id="f" fill="#fff">
                    <use xlink:href="#e"/>
                </mask>
                <use fill="#D8A25D" xlink:href="#e"/>
                <g mask="url(#f)">
                    <path fill="#0C5EA8" d="M-33 72H93V-28H-33z"/>
                </g>
            </g>
            <g transform="matrix(-1 0 0 1 54 4)">
                <mask id="h" fill="#fff">
                    <use xlink:href="#g"/>
                </mask>
                <use fill="#F6B873" xlink:href="#g"/>
                <g fill="#8B5F26" mask="url(#h)">
                    <path d="M-14-29h69v79h-69z"/>
                </g>
            </g>
            <path fill="#593A32" fill-rule="nonzero" d="M38.023 42.027c.024.066.086.2.19.381.178.309.41.619.7.908 1.02 1.02 2.469 1.53 4.474 1.25.996-.138 1.699-.634 2.18-1.391a4.021 4.021 0 0 0 .56-1.456.507.507 0 0 1 1.005.126c-.061.484-.266 1.176-.71 1.874-.633.995-1.588 1.67-2.895 1.851-2.326.324-4.09-.298-5.33-1.538-.612-.61-.967-1.224-1.125-1.656a.506.506 0 1 1 .95-.35z"/>
            <path fill="#635E59" d="M48.856 31.656c-1.082.358-1.864-1.651-1.84-3.085.003-.272.102-1.527.75-1.674.647-.148 1.078.427 1.143.529.778 1.215 1.13 3.837-.053 4.23M36.701 31.861c-1.337.222-1.89-1.873-1.603-3.294.055-.27.4-1.505 1.188-1.571.79-.066 1.191.559 1.248.668.693 1.305.63 3.954-.833 4.197"/>
            <path fill="#D1BFA3" fill-rule="nonzero" d="M45.364 33.163a2.374 2.374 0 0 0 2.137.558c.807-.113 1.353-.026 1.553.22.786.964.534 1.986-.813 2.825-.709.44-1.684.596-2.2.367a.5.5 0 0 0-.406.915c.854.378 2.167.169 3.134-.433 1.832-1.14 2.25-2.845 1.06-4.306-.488-.6-1.343-.735-2.466-.578l-.143.028a1.402 1.402 0 0 1-1.187-.34.5.5 0 1 0-.669.744z"/>
            <g>
                <g transform="matrix(-1 0 0 1 54 30)">
                    <mask id="j" fill="#fff">
                        <use xlink:href="#i"/>
                    </mask>
                    <use fill="#85817F" xlink:href="#i"/>
                    <g fill="#8B5F26" mask="url(#j)">
                        <path d="M-11-32h69v79h-69z"/>
                    </g>
                </g>
            </g>
        </g>
        <g>
            <g transform="translate(54.588 83.696)">
                <mask id="l" fill="#fff">
                    <use xlink:href="#k"/>
                </mask>
                <use fill="#D8A25D" xlink:href="#k"/>
                <g mask="url(#l)">
                    <path fill="#6AB889" d="M-31.783 46.556h89v-87h-89z"/>
                </g>
            </g>
            <path fill="#E7E5E2" d="M51.554 71.957C51.948 65.838 56.922 61 63 61c6.078 0 11.052 4.838 11.446 10.957h.025c.844 0 1.529.684 1.529 1.529v1.637a1.53 1.53 0 0 1-2.14 1.403c-1.13 3.395-3.736 6.09-7.037 7.284a3.824 3.824 0 0 1-7.646 0c-3.3-1.193-5.908-3.89-7.038-7.284A1.53 1.53 0 0 1 50 75.123l.001-1.637a1.53 1.53 0 0 1 1.554-1.53z"/>
            <path stroke="#593A32" stroke-linecap="round" d="M61.353 78.947c.25.518.75.778 1.5.778s1.25-.26 1.5-.778"/>
            <path fill="#E8CCC8" d="M59.853 78.169c0 1.289-1.007 2.333-2.25 2.333-1.242 0-2.25-1.044-2.25-2.333 0-1.289 1.008-2.333 2.25-2.333 1.243 0 2.25 1.044 2.25 2.333M70.353 78.169c0 1.289-1.007 2.333-2.25 2.333-1.242 0-2.25-1.044-2.25-2.333 0-1.289 1.008-2.333 2.25-2.333 1.243 0 2.25 1.044 2.25 2.333"/>
            <path stroke="#D1BFA3" stroke-linecap="round" d="M63.394 74.315c.312-.068.616-.052.758.196.348.607.248 1.306-.337 1.823-.293.258-.708.364-.962.204"/>
            <path fill="#635E59" d="M58.733 74.278c-1.033.07-1.323-1.289-1.011-2.175.058-.169.4-.934 1.006-.934.605 0 .872.419.91.49.445.865.227 2.543-.905 2.619M66.983 74.278c-1.033.07-1.323-1.289-1.011-2.175.058-.169.4-.934 1.006-.934.605 0 .872.419.91.49.445.865.227 2.543-.905 2.619"/>
            <g stroke="#78706A" stroke-linecap="round" stroke-linejoin="round">
                <path d="M60.868 62.099c-.152.562.17.86.606 1.26.378.35.46.776.246 1.28M63.05 62.014c-.338.469-.14.865.125 1.399.231.465.158.893-.219 1.285M65.163 62.081c-.463.34-.395.778-.304 1.37.08.515-.119.9-.596 1.153"/>
            </g>
        </g>
    </g>
</svg>
