<svg xmlns="http://www.w3.org/2000/svg" width="30" height="30" viewBox="0 0 30 30">
    <g fill="#3E3832" fill-rule="nonzero">
        <path d="M11.25 21.25H4.652A2.46 2.46 0 0 0 5 20V6.25h20v5a.625.625 0 0 0 1.25 0V5.625A.625.625 0 0 0 25.625 5H23.75V3.125a.625.625 0 0 0-.625-.625H7.5V.625A.625.625 0 0 0 6.875 0H.625A.625.625 0 0 0 0 .625V20c0 1.379 1.121 2.5 2.5 2.5h8.75a.625.625 0 0 0 0-1.25zM1.25 20V1.25h5v1.875c0 .345.28.625.625.625H22.5V5H4.375a.625.625 0 0 0-.625.625V20c0 .689-.56 1.25-1.25 1.25S1.25 20.689 1.25 20z"/>
        <path d="M21.875 13.75c-4.48 0-8.125 3.645-8.125 8.125S17.395 30 21.875 30 30 26.355 30 21.875s-3.645-8.125-8.125-8.125zM15 21.875A6.883 6.883 0 0 1 21.875 15c1.67 0 3.204.6 4.396 1.595l-9.675 9.676A6.834 6.834 0 0 1 15 21.875zm6.875 6.875a6.84 6.84 0 0 1-4.396-1.595l9.675-9.676a6.834 6.834 0 0 1 1.596 4.396 6.883 6.883 0 0 1-6.875 6.875z"/>
    </g>
</svg>
