<?xml version="1.0" encoding="UTF-8"?>
<svg width="23px" height="23px" viewBox="0 0 23 23" version="1.1" xmlns="http://www.w3.org/2000/svg" xmlns:xlink="http://www.w3.org/1999/xlink">
    <!-- Generator: Sketch 55.2 (78181) - https://sketchapp.com -->
    <title>Outline/23-alerts-informations/infomation-circle</title>
    <desc>Created with Sketch.</desc>
    <g id="Page-1" stroke="none" stroke-width="1" fill="none" fill-rule="evenodd">
        <g id="Outline/23-alerts-informations/infomation-circle" transform="translate(0.000000, -1.000000)" fill="#0067C5">
            <path d="M11.4999999,0.999999954 C17.841,0.999999954 22.9999999,6.15899998 22.9999999,12.5 C22.9999999,18.841 17.841,24 11.4999999,24 C5.15899997,24 -5.00000041e-08,18.841 -5.00000041e-08,12.5 C-5.00000041e-08,6.15899998 5.15899997,0.999999954 11.4999999,0.999999954 Z M11.5,23 C17.29,23 22,18.29 22,12.5 C22,6.70999998 17.29,1.99999996 11.5,1.99999996 C5.70999997,1.99999996 0.999999954,6.70999998 0.999999954,12.5 C0.999999954,18.29 5.70999997,23 11.5,23 Z M14.5,19 C14.776,19 15,19.224 15,19.5 C15,19.776 14.776,20 14.5,20 L8.49999998,20 C8.22399998,20 7.99999998,19.776 7.99999998,19.5 C7.99999998,19.224 8.22399998,19 8.49999998,19 L11,19 L11,11 L9.49999998,11 C9.22399999,11 8.99999998,10.776 8.99999998,10.5 C8.99999998,10.224 9.22399999,9.99999999 9.49999998,9.99999999 L11.5,9.99999999 C11.776,9.99999999 12,10.224 12,10.5 L12,19 L14.5,19 Z M11,7.49999997 C10.4477152,7.49999997 9.99999999,7.05228473 9.99999999,6.49999997 C9.99999999,5.94771522 10.4477152,5.49999997 11,5.49999997 C11.5522847,5.49999997 12,5.94771522 12,6.49999997 C12,7.05228473 11.5522847,7.49999997 11,7.49999997 Z" id="Combined-Shape"></path>
        </g>
    </g>
</svg>