<?xml version="1.0" encoding="UTF-8"?>
<svg width="24px" height="25px" viewBox="0 0 24 25" version="1.1" xmlns="http://www.w3.org/2000/svg" xmlns:xlink="http://www.w3.org/1999/xlink">
    <!-- Generator: Sketch 56 (81588) - https://sketch.com -->
    <title>infomation-circle copy</title>
    <desc>Created with Sketch.</desc>
    <g id="Page-1" stroke="none" stroke-width="1" fill="none" fill-rule="evenodd">
        <g id="infomation-circle-copy" fill="#0067C5" fill-rule="nonzero">
            <path d="M12,24.1 C5.4,24.1 0,18.7 0,12.1 C0,5.5 5.4,0.1 12,0.1 C18.6,0.1 24,5.5 24,12.1 C24,18.7 18.6,24.1 12,24.1 Z M12,2.1 C6.5,2.1 2,6.6 2,12.1 C2,17.6 6.5,22.1 12,22.1 C17.5,22.1 22,17.6 22,12.1 C22,6.6 17.5,2.1 12,2.1 Z" id="Shape"></path>
            <path d="M14.6,19.6 L9.2,19.6 C8.6,19.6 8.2,19.2 8.2,18.6 C8.2,18 8.6,17.6 9.2,17.6 L11,17.6 L11,11.1 L10,11.1 C9.4,11.1 9,10.7 9,10.1 C9,9.5 9.4,9.1 10,9.1 L12,9.1 C12.6,9.1 13,9.5 13,10.1 L13,17.6 L14.6,17.6 C15.2,17.6 15.6,18 15.6,18.6 C15.6,19.2 15.2,19.6 14.6,19.6 Z" id="Path"></path>
            <path d="M11.5,7.6 C10.6,7.6 10,7 10,6.1 C10,5.2 10.6,4.6 11.5,4.6 C12.4,4.6 13,5.2 13,6.1 C13,7 12.4,7.6 11.5,7.6 Z" id="Path"></path>
        </g>
    </g>
</svg>