<?xml version="1.0" encoding="UTF-8"?>
<svg width="23px" height="23px" viewBox="0 0 23 23" version="1.1" xmlns="http://www.w3.org/2000/svg" xmlns:xlink="http://www.w3.org/1999/xlink">
    <!-- Generator: Sketch 55.2 (78181) - https://sketchapp.com -->
    <title>Fill/23-alerts-informations/infomation-circle</title>
    <desc>Created with Sketch.</desc>
    <g id="Page-1" stroke="none" stroke-width="1" fill="none" fill-rule="evenodd">
        <g id="Fill/23-alerts-informations/infomation-circle" transform="translate(0.000000, -1.000000)" fill="#0067C5">
            <path d="M11.4999999,0.999999954 C5.15799997,0.999999954 -5.00000006e-08,6.15799998 -5.00000006e-08,12.5 C-5.00000006e-08,18.842 5.15799997,24 11.4999999,24 C17.841,24 22.9999999,18.842 22.9999999,12.5 C22.9999999,6.15799998 17.841,0.999999954 11.4999999,0.999999954 Z M11,5.99999997 C11.551,5.99999997 12,6.44799998 12,6.99999997 C12,7.55299998 11.551,7.99999997 11,7.99999997 C10.447,7.99999997 9.99999999,7.55299998 9.99999999,6.99999997 C9.99999999,6.44799998 10.447,5.99999997 11,5.99999997 Z M14.5,20 L8.49999998,20 C8.22399998,20 7.99999998,19.776 7.99999998,19.5 C7.99999998,19.224 8.22399998,19 8.49999998,19 L11,19 L11,11 L9.49999998,11 C9.22399999,11 8.99999998,10.776 8.99999998,10.5 C8.99999998,10.224 9.22399999,9.99999999 9.49999998,9.99999999 L11.5,9.99999999 C11.775,9.99999999 12,10.224 12,10.5 L12,19 L14.5,19 C14.775,19 15,19.224 15,19.5 C15,19.776 14.775,20 14.5,20 Z" id="Fill/infomation-circle"></path>
        </g>
    </g>
</svg>