<?xml version="1.0" encoding="UTF-8"?>
<svg width="64px" height="64px" viewBox="0 0 64 64" version="1.1" xmlns="http://www.w3.org/2000/svg" xmlns:xlink="http://www.w3.org/1999/xlink">
    <!-- Generator: Sketch 55 (78076) - https://sketchapp.com -->
    <title>icon/ feedback/ infomation circle@1x</title>
    <desc>Created with Sketch.</desc>
    <g id="Page-1" stroke="none" stroke-width="1" fill="none" fill-rule="evenodd">
        <g id="GDPR-Personopplysning-modal-DIFI" transform="translate(-596.000000, -387.000000)">
            <g id="icon/-feedback/-infomation-circle" transform="translate(596.000000, 387.000000)">
                <g id="infomation-circle">
                    <path d="M32,0 C14.3526957,0 0,14.2836923 0,31.8461538 C0,49.4086154 14.3526957,63.6923077 32,63.6923077 C49.6445217,63.6923077 64,49.4086154 64,31.8461538 C64,14.2836923 49.6445217,0 32,0 Z" id="Shape" fill="#669DB4"></path>
                    <g id="Group" transform="translate(22.260870, 11.192308)" fill="#FFFFFF">
                        <g id="Group-2">
                            <path d="M9.73913043,2.07692308 C12.0389565,2.07692308 13.9130435,3.93784615 13.9130435,6.23076923 C13.9130435,8.52784615 12.0389565,10.3846154 9.73913043,10.3846154 C7.43095652,10.3846154 5.56521739,8.52784615 5.56521739,6.23076923 C5.56521739,3.93784615 7.43095652,2.07692308 9.73913043,2.07692308 Z" id="Path"></path>
                            <path d="M17.6740722,33.9498212 C19.1774991,33.9498212 20.4566809,35.0939696 20.4566809,36.5805904 C20.4566809,38.0672113 19.1774991,39.2113597 17.6740722,39.2113597 L2.7826087,39.2113597 C1.2769857,39.2113597 0,38.0675979 0,36.5805904 C0,35.0935829 1.2769857,33.9498212 2.7826087,33.9498212 L7.04744802,33.9498212 L7.04744802,20.6411618 L4.41861774,20.6411618 C2.91299475,20.6411618 1.63600905,19.4974001 1.63600905,18.0103926 C1.63600905,16.5233851 2.91299475,15.3796234 4.41861774,15.3796234 L9.83005672,15.3796234 C11.3334836,15.3796234 12.6126654,16.5237717 12.6126654,18.0103926 L12.6126654,33.9498212 L17.6740722,33.9498212 Z" id="Path" fill-rule="nonzero"></path>
                        </g>
                    </g>
                </g>
            </g>
        </g>
    </g>
</svg>