<?xml version="1.0" encoding="UTF-8"?>
<svg width="59px" height="63px" viewBox="0 0 59 63" version="1.1" xmlns="http://www.w3.org/2000/svg" xmlns:xlink="http://www.w3.org/1999/xlink">
    <!-- Generator: Sketch 53.2 (72643) - https://sketchapp.com -->
    <title>Group</title>
    <desc>Created with Sketch.</desc>
    <defs>
        <path d="M-1.13686838e-13,10.8 L-1.13686838e-13,59.8163195 C-1.13686838e-13,61.5745386 1.45436861,63 3.24916041,63 L46.7526748,63 C48.5456314,63 50,61.5745386 50,59.8163195 L50,3.18368046 C50,1.42546145 48.5456314,0 46.7526748,0 L12.037037,0 L-1.13686838e-13,10.8 Z" id="path-1"></path>
    </defs>
    <g id="Page-1" stroke="none" stroke-width="1" fill="none" fill-rule="evenodd">
        <g id="Artboard" transform="translate(-55.000000, -149.000000)">
            <g id="Group" transform="translate(55.000000, 149.000000)">
                <g id="dokumenter/-ark" transform="translate(0.000000, 0.000000)">
                    <g id="farger/-ark/-lys-grå" stroke-width="1">
                        <mask id="mask-2" fill="white">
                            <use xlink:href="#path-1"></use>
                        </mask>
                        <path stroke="#8F9395" d="M0.5,11.0231403 L0.5,59.8163195 C0.5,61.2962412 1.72840969,62.5 3.24916041,62.5 L46.7526748,62.5 C48.2718314,62.5 49.5,61.2960077 49.5,59.8163195 L49.5,3.18368046 C49.5,1.70399234 48.2718314,0.5 46.7526748,0.5 L12.2284658,0.5 L0.5,11.0231403 Z"></path>
                    </g>
                    <path d="M12.037037,0 L12.037037,7.52157737 C12.037037,9.33253322 10.488818,10.8 8.57820817,10.8 L0,10.8 L12.037037,0 Z" id="Fill-59" fill="#8F9395"></path>
                    <g id="V⚙️/-dokumenter/-innhold/-tekst" transform="translate(1.851852, 9.000000)" fill="#8F9395" stroke-width="1">
                        <g id="Group" transform="translate(7.360000, 5.400000)">
                            <polygon id="Fill-60" points="0 9 31.28 9 31.28 6.3 0 6.3"></polygon>
                            <polygon id="Fill-61" points="0 15.3 31.28 15.3 31.28 12.6 0 12.6"></polygon>
                            <polygon id="Fill-62" points="0 21.6 31.28 21.6 31.28 18.9 0 18.9"></polygon>
                            <polygon id="Fill-63" points="0 27.9 31.28 27.9 31.28 25.2 0 25.2"></polygon>
                            <polygon id="Fill-64" points="0 34.2 31.28 34.2 31.28 31.5 0 31.5"></polygon>
                            <polygon id="Fill-65" points="0 2.7 31.28 2.7 31.28 0 0 0"></polygon>
                        </g>
                    </g>
                </g>
                <g id="dokumenter/-blyant" transform="translate(26.666667, 23.333333)">
                    <g id="Group">
                        <path d="M26.3245342,11.4876158 L21.34935,6.36166842 C20.5304289,5.51793158 20.5304289,4.14987895 21.34935,3.30614211 L23.7791921,0.802668421 C24.5989816,-0.0410684211 25.9259289,-0.0410684211 26.74485,0.802668421 L31.7209026,5.92861579 C32.5389553,6.77235263 32.5389553,8.14040526 31.7209026,8.98414211 L29.2901921,11.4876158 C28.4712711,12.3313526 27.1434553,12.3313526 26.3245342,11.4876158" id="Fill-29" fill="#C5232A"></path>
                        <polygon id="Fill-30" fill="#E9D8BD" points="5.52228947 19.6137053 0.119842105 33.3604421 13.4631316 27.7951789 10.4332105 22.4097579"></polygon>
                        <polygon id="Fill-31" fill="#EEC85D" points="23.6836658 6.35558421 21.0367184 3.62842632 6.32132368 18.7906368 8.96827105 21.5177947"></polygon>
                        <polygon id="Fill-32" fill="#E2B954" points="11.6147842 24.2445947 26.3301789 9.08238421 23.6832316 6.35522632 8.96783684 21.5174368"></polygon>
                        <polygon id="Fill-33" fill="#EEC85D" points="26.3304395 9.08256316 11.6150447 24.2447737 14.2619921 26.9719316 28.9773868 11.8097211"></polygon>
                        <path d="M5.82163421,21.0885895 C6.32097632,21.6030632 7.28666053,21.2943789 7.95273947,21.9806421 C8.06042368,22.0915895 8.13163421,22.2070105 8.18287105,22.3260105 L8.96792368,21.5171684 L6.32097632,18.7909053 L5.58802895,19.5451684 C5.58802895,19.5451684 5.32229211,20.5741158 5.82163421,21.0885895" id="Fill-34" fill="#EEC85D"></path>
                        <path d="M8.18269737,22.3262789 C8.45017105,22.9445421 8.12190789,23.6639105 8.82619737,24.3904368 C9.53135526,25.1169632 10.2295658,24.7778579 10.8296447,25.0534368 L11.6146974,24.2445947 L8.96775,21.5174368 L8.18269737,22.3262789 Z" id="Fill-35" fill="#E2B954"></path>
                        <path d="M10.8294711,25.0532579 C10.9458395,25.1069421 11.0578658,25.1803105 11.16555,25.2912579 C11.8307605,25.9766263 11.5320237,26.9715737 12.0313658,27.4860474 C12.5307079,28.0005211 13.5293921,27.7258368 13.5293921,27.7258368 L14.2614711,26.9715737 L11.6145237,24.2444158 L10.8294711,25.0532579 Z" id="Fill-36" fill="#EEC85D"></path>
                        <polygon id="Fill-37" fill="#5C5B5A" points="0.120102632 33.3606211 4.84170789 31.3913053 2.03149737 28.4959368"></polygon>
                        <polygon id="Fill-38" fill="#5C5B5A" points="28.9773 11.8096316 21.0364579 3.62815789 22.1167737 2.51689474 30.0567474 10.6974737"></polygon>
                    </g>
                </g>
            </g>
        </g>
    </g>
</svg>