<svg xmlns="http://www.w3.org/2000/svg" xmlns:xlink="http://www.w3.org/1999/xlink" width="77" height="70" viewBox="0 0 77 70">
    <defs>
        <path id="a" d="M0 11.657v54.806C0 68.416 1.57 70 3.51 70h46.983C52.429 70 54 68.416 54 66.463V3.537C54 1.584 52.43 0 50.493 0H12.212L0 11.657z"/>
    </defs>
    <g fill="none" fill-rule="evenodd">
        <g>
            <mask id="b" fill="#fff">
                <use xlink:href="#a"/>
            </mask>
        </g>
        <path fill="#C9C9C9" d="M12.323 0v8.124a3.54 3.54 0 0 1-3.541 3.541H0L12.323 0z"/>
        <g fill="#8F9395">
            <path d="M10 26.938h33.798V24H10zM10 32.939h33.798V30H10zM10 39.938h33.674V37H10zM10 45.938h33.674V43H10zM10 52.938h33.674V50H10zM10 19.938h33.798V17H10z"/>
        </g>
        <g>
            <path fill="#C5232A" d="M69.313 38.84l-5.729-5.73a2.415 2.415 0 0 1 0-3.415l2.798-2.798a2.415 2.415 0 0 1 3.415 0l5.73 5.73a2.417 2.417 0 0 1 0 3.414l-2.799 2.798a2.415 2.415 0 0 1-3.415 0"/>
            <path fill="#E9D8BD" d="M45.359 47.921l-6.221 15.364 15.365-6.22-3.489-6.019z"/>
            <path fill="#EEC85D" d="M66.272 33.103l-3.048-3.048L46.28 47.001l3.048 3.048z"/>
            <path fill="#E2B954" d="M52.375 53.097L69.32 36.15l-3.048-3.048-16.945 16.946z"/>
            <path fill="#EEC85D" d="M69.32 36.151L52.375 53.097l3.048 3.048L72.368 39.2zM45.704 49.57c.575.575 1.687.23 2.454.997.124.124.206.253.265.386l.904-.904-3.048-3.047-.844.843s-.306 1.15.269 1.725"/>
            <path fill="#E2B954" d="M48.422 50.953c.309.69-.07 1.495.742 2.307.811.812 1.615.433 2.306.74l.905-.903-3.049-3.048-.904.904z"/>
            <path fill="#EEC85D" d="M51.47 54c.134.06.263.143.387.267.766.766.422 1.878.997 2.453s1.725.268 1.725.268l.843-.843-3.048-3.048-.904.904z"/>
            <path fill="#5C5B5A" d="M39.138 63.285l5.437-2.2-3.236-3.237zM72.368 39.199l-9.144-9.144 1.244-1.242 9.143 9.143z"/>
        </g>
    </g>
</svg>
