<?xml version="1.0" encoding="UTF-8"?>
<svg width="24px" height="24px" viewBox="0 0 24 24" version="1.1" xmlns="http://www.w3.org/2000/svg" xmlns:xlink="http://www.w3.org/1999/xlink">
    <title>Outline/22-time/calendar-2</title>
    <g id="Ny-retning" stroke="none" stroke-width="1" fill="none" fill-rule="evenodd">
        <g id="Ny-tekst-–-Medlemskap-i-folketrygden-–-Step-1-Copy-2" transform="translate(-418.000000, -1573.000000)" fill="#3E3832">
            <g id="Group-2" transform="translate(393.000000, 1405.500000)">
                <g id="Combined-Shape" transform="translate(25.000000, 167.500000)">
                    <path d="M7.49999995,-4.99996204e-08 C7.77599998,-4.99996204e-08 7.99999995,0.223999951 7.99999995,0.49999995 L7.99999995,0.49999995 L7.99999995,1.99999995 L16,1.99999995 L16,0.49999995 C16,0.223999951 16.224,-4.99996204e-08 16.5,-4.99996204e-08 L16.5,-4.99996204e-08 L19.5,-4.99996204e-08 C19.776,-4.99996204e-08 20,0.223999951 20,0.49999995 L20,0.49999995 L20,1.99999995 L23.5,1.99999995 C23.776,1.99999995 24,2.22399996 24,2.49999995 L24,2.49999995 L24,23.5 C24,23.776 23.776,24 23.5,24 L23.5,24 L0.49999995,24 C0.223999951,24 -4.99999899e-08,23.776 -4.99999899e-08,23.5 L-4.99999899e-08,23.5 L-4.99999899e-08,2.49999995 C-4.99999899e-08,2.22399996 0.223999951,1.99999995 0.49999995,1.99999995 L0.49999995,1.99999995 L3.99999995,1.99999995 L3.99999995,0.49999995 C3.99999995,0.223999951 4.22399997,-4.99996204e-08 4.49999995,-4.99996204e-08 L4.49999995,-4.99996204e-08 Z M23,7.99999998 L0.999999954,7.99999998 L0.999999954,23 L23,23 L23,7.99999998 Z M16.5,8.99999999 C16.776,8.99999999 17,9.22399999 17,9.49999999 L17,9.49999999 L17,11 L21.5,11 C21.776,11 22,11.224 22,11.5 C22,11.776 21.776,12 21.5,12 L21.5,12 L17,12 L17,15 L21.5,15 C21.776,15 22,15.224 22,15.5 C22,15.776 21.776,16 21.5,16 L21.5,16 L17,16 L17,19 L21.5,19 C21.776,19 22,19.224 22,19.5 C22,19.776 21.776,20 21.5,20 L21.5,20 L17,20 L17,21.5 C17,21.776 16.776,22 16.5,22 C16.224,22 16,21.776 16,21.5 L16,21.5 L16,20 L12,20 L12,21.5 C12,21.776 11.776,22 11.5,22 C11.224,22 11,21.776 11,21.5 L11,21.5 L11,20 L6.99999996,20 L6.99999996,21.5 C6.99999996,21.776 6.77599998,22 6.49999996,22 C6.22399998,22 5.99999996,21.776 5.99999996,21.5 L5.99999996,21.5 L5.99999996,20 L2.49999996,20 C2.22399996,20 1.99999996,19.776 1.99999996,19.5 C1.99999996,19.224 2.22399996,19 2.49999996,19 L2.49999996,19 L5.99999996,19 L5.99999996,16 L2.49999996,16 C2.22399996,16 1.99999996,15.776 1.99999996,15.5 C1.99999996,15.224 2.22399996,15 2.49999996,15 L2.49999996,15 L5.99999996,15 L5.99999996,12 L2.49999996,12 C2.22399996,12 1.99999996,11.776 1.99999996,11.5 C1.99999996,11.224 2.22399996,11 2.49999996,11 L2.49999996,11 L5.99999996,11 L5.99999996,9.49999999 C5.99999996,9.22399999 6.22399998,8.99999999 6.49999996,8.99999999 C6.77599998,8.99999999 6.99999996,9.22399999 6.99999996,9.49999999 L6.99999996,9.49999999 L6.99999996,11 L11,11 L11,9.49999999 C11,9.22399999 11.224,8.99999999 11.5,8.99999999 C11.776,8.99999999 12,9.22399999 12,9.49999999 L12,9.49999999 L12,11 L16,11 L16,9.49999999 C16,9.22399999 16.224,8.99999999 16.5,8.99999999 Z M11,16 L6.99999998,16 L6.99999998,19 L11,19 L11,16 Z M16,16 L12,16 L12,19 L16,19 L16,16 Z M11,12 L6.99999998,12 L6.99999998,15 L11,15 L11,12 Z M16,12 L12,12 L12,15 L16,15 L16,12 Z M3.99999995,2.99999996 L0.999999954,2.99999996 L0.999999954,6.99999996 L23,6.99999996 L23,2.99999996 L20,2.99999996 L20,4.49999996 C20,4.77599997 19.776,4.99999996 19.5,4.99999996 L19.5,4.99999996 L16.5,4.99999996 C16.224,4.99999996 16,4.77599997 16,4.49999996 L16,4.49999996 L16,2.99999996 L7.99999995,2.99999996 L7.99999995,4.49999996 C7.99999995,4.77599997 7.77599998,4.99999996 7.49999995,4.99999996 L7.49999995,4.99999996 L4.49999995,4.99999996 C4.22399997,4.99999996 3.99999995,4.77599997 3.99999995,4.49999996 L3.99999995,4.49999996 L3.99999995,2.99999996 Z M19,0.999999954 L17,0.999999954 L17,3.99999995 L19,3.99999995 L19,0.999999954 Z M6.99999997,0.999999954 L4.99999997,0.999999954 L4.99999997,3.99999995 L6.99999997,3.99999995 L6.99999997,0.999999954 Z"></path>
                </g>
            </g>
        </g>
    </g>
</svg>