<svg xmlns="http://www.w3.org/2000/svg" xmlns:xlink="http://www.w3.org/1999/xlink" width="84" height="63" viewBox="0 0 84 63">
    <defs>
        <path id="a" d="M0 63h84V0H0z"/>
    </defs>
    <g fill="none" fill-rule="evenodd">
        <path fill="#623E32" d="M80.601 63H5.4C4.629 63 4 62.371 4 61.596V29.404C4 28.629 4.628 28 5.399 28H80.6A1.4 1.4 0 0 1 82 29.404v32.192A1.4 1.4 0 0 1 80.601 63"/>
        <mask id="b" fill="#fff">
            <use xlink:href="#a"/>
        </mask>
        <path fill="#3B3835" d="M4 38h78v-7H4zM54 7h-2.74V4.984c0-1.117-.836-2.022-1.869-2.022H36.608c-1.033 0-1.87.905-1.87 2.022V7H32V4.698C32 2.103 33.944 0 36.342 0h13.313C52.055 0 54 2.103 54 4.698V7z" mask="url(#b)"/>
        <path fill="#7A3C2D" d="M0 8.418v28.164C0 37.365.623 38 1.39 38h33.157v-1.14c0-2.1 1.623-3.81 3.619-3.81h7.67c1.994 0 3.616 1.71 3.616 3.81V38H82.61c.767 0 1.39-.635 1.39-1.418V8.418C84 7.635 83.377 7 82.61 7H1.39C.623 7 0 7.635 0 8.418" mask="url(#b)"/>
        <path fill="#3B3835" d="M38.641 42C36.634 42 35 40.273 35 38.151v-2.304C35 33.725 36.634 32 38.641 32h7.718C48.367 32 50 33.725 50 35.847v2.304C50 40.273 48.367 42 46.359 42H38.64z" mask="url(#b)"/>
        <path fill="#F29000" d="M46.583 34h-8.166C37.082 34 36 35.061 36 36.37v2.261C36 39.94 37.082 41 38.417 41h8.166C47.919 41 49 39.94 49 38.631v-2.26C49 35.06 47.92 34 46.583 34" mask="url(#b)"/>
    </g>
</svg>
