<?xml version="1.0" encoding="UTF-8"?>
<svg width="64px" height="64px" viewBox="0 0 64 64" version="1.1" xmlns="http://www.w3.org/2000/svg" xmlns:xlink="http://www.w3.org/1999/xlink">
    <!-- Generator: Sketch 55 (78076) - https://sketchapp.com -->
    <title>Group 9@1x</title>
    <desc>Created with Sketch.</desc>
    <defs>
        <rect id="path-1" x="0" y="0" width="64" height="64"></rect>
        <circle id="path-3" cx="32" cy="32" r="32"></circle>
    </defs>
    <g id="Page-1" stroke="none" stroke-width="1" fill="none" fill-rule="evenodd">
        <g id="GDPR-Personopplysning" transform="translate(-595.000000, -1106.000000)">
            <g id="Group-9" transform="translate(595.000000, 1106.000000)">
                <g id="spotlight/-gjenstand-">
                    <mask id="mask-2" fill="white">
                        <use xlink:href="#path-1"></use>
                    </mask>
                    <g id="Background"></g>
                    <g id="spotlight/-element" mask="url(#mask-2)" fill-rule="evenodd" stroke-width="1">
                        <g id="🌈-60">
                            <mask id="mask-4" fill="white">
                                <use xlink:href="#path-3"></use>
                            </mask>
                            <g id="Mask"></g>
                            <g id="NAV-Brand/farge/-Blå/-60" mask="url(#mask-4)" fill="#99C2E8">
                                <polygon id="blå-60" points="0 64 64 64 64 0 0 0"></polygon>
                            </g>
                        </g>
                    </g>
                </g>
                <g id="Group-10" transform="translate(16.000000, 16.000000)">
                    <path d="M23.459461,22.0771334 C22.8143944,21.4307001 21.9561277,21.0767334 21.0431943,21.0767334 C20.130261,21.0767334 19.273361,21.4320668 18.6269277,22.0771334 L18.100761,22.6033001 C15.271761,20.2362334 12.553461,17.5179334 10.1891276,14.6916667 L10.7152943,14.1655001 C12.0477943,12.8330001 12.0477943,10.6654667 10.7152943,9.33296671 L7.81659429,6.43426669 C7.17152762,5.78920002 6.31326095,5.43523336 5.40032762,5.43523336 C4.48739428,5.43523336 3.62912761,5.79056669 2.98406094,6.43426669 L1.39326093,8.0250667 C-0.204372407,9.62270004 -0.458572408,12.1537667 0.789194264,14.0438667 C5.46592762,21.1150001 11.676061,27.3251334 18.748561,32.0046001 C19.5343943,32.5225668 20.4473277,32.7972668 21.388961,32.7972668 C22.6667944,32.7972668 23.8667277,32.3011668 24.767361,31.3991668 L26.358161,29.8083668 C27.6892944,28.4772335 27.6892944,26.3097001 26.358161,24.9772001 L23.459461,22.0771334 Z" id="Fill/phone-call-1" fill="#337C9B"></path>
                    <path d="M16.3937943,1.0658141e-14 C16.0165943,1.0658141e-14 15.710461,0.307500001 15.710461,0.683333336 C15.710461,1.06053334 16.0165943,1.36666667 16.3937943,1.36666667 C24.6826277,1.36666667 31.4271277,8.1111667 31.4271277,16.4000001 C31.4271277,16.7772001 31.7332611,17.0833334 32.1104611,17.0833334 C32.4876611,17.0833334 32.7937944,16.7772001 32.7937944,16.4000001 C32.7937944,7.35813336 25.435661,1.0658141e-14 16.3937943,1.0658141e-14 Z" id="Path" fill="#3E3832"></path>
                    <path d="M16.3937943,6.83333336 C21.6691277,6.83333336 25.960461,11.1260334 25.960461,16.4000001 C25.960461,16.7772001 26.2665944,17.0833334 26.6437944,17.0833334 C27.0209944,17.0833334 27.3271277,16.7772001 27.3271277,16.4000001 C27.3271277,10.3716334 22.422161,5.46666669 16.3937943,5.46666669 C16.0165943,5.46666669 15.710461,5.77416669 15.710461,6.15000003 C15.710461,6.52720003 16.0165943,6.83333336 16.3937943,6.83333336 Z" id="Path" fill="#3E3832"></path>
                    <path d="M16.3937943,12.3000001 C18.654261,12.3000001 20.4937943,14.1395334 20.4937943,16.4000001 C20.4937943,16.7772001 20.7999277,17.0833334 21.1771277,17.0833334 C21.5543277,17.0833334 21.860461,16.7772001 21.860461,16.4000001 C21.860461,13.3865001 19.408661,10.9333334 16.3937943,10.9333334 C16.0165943,10.9333334 15.710461,11.2408334 15.710461,11.6166667 C15.710461,11.9938667 16.0165943,12.3000001 16.3937943,12.3000001 Z" id="Path" fill="#3E3832"></path>
                </g>
            </g>
        </g>
    </g>
</svg>