<svg xmlns="http://www.w3.org/2000/svg" xmlns:xlink="http://www.w3.org/1999/xlink" width="92" height="92" viewBox="0 0 92 92">
    <defs>
        <circle id="a" cx="46" cy="46" r="46"/>
        <path id="c" d="M53.554 26.618h-.046C53.508 11.918 42.97 0 29.972 0 16.974 0 6.438 11.917 6.438 26.618v.013C6.433 39.186 0 46.364 0 46.364s6.353 7.842 29.973 7.842h.046c23.621 0 29.974-7.842 29.974-7.842s-6.439-7.183-6.439-19.746"/>
        <path id="e" d="M34.478.42c5.266 2.778 12.937 9.555 12.937 15.854v12.505a9 9 0 0 1-9 9H0V16.274C0 10.227 6.948 3.739 12.11.773c.947 1.606 3.447 8.013 11.056 8.013 7.552 0 11.158-6.774 11.312-8.366z"/>
    </defs>
    <g fill="none" fill-rule="evenodd">
        <mask id="b" fill="#fff">
            <use xlink:href="#a"/>
        </mask>
        <g mask="url(#b)">
            <path fill="#FFD7A3" d="M-7.36 92h115.39V0H-7.36z"/>
        </g>
        <g mask="url(#b)">
            <g transform="translate(15.682 13.047)">
                <mask id="d" fill="#fff">
                    <use xlink:href="#c"/>
                </mask>
                <use fill="#E57F68" xlink:href="#c"/>
                <g fill="#D2654C" mask="url(#d)">
                    <path d="M0-1.775h60.707v70.297H0z"/>
                </g>
            </g>
            <path fill="#E7E5E2" d="M34.212 60.745c.9 1.451 3.432 26.95 11.03 26.95 7.598 0 11.029-25.973 11.029-27.325-11.634-6.712-22.06.375-22.06.375z"/>
            <g transform="translate(21.859 60.117)">
                <mask id="f" fill="#fff">
                    <use xlink:href="#e"/>
                </mask>
                <use fill="#D8A25D" xlink:href="#e"/>
                <g mask="url(#f)">
                    <path fill="#0C5EA8" d="M-28.976 63.4H81.44v-88H-28.976z"/>
                </g>
            </g>
            <path fill="#E7E5E2" d="M47.27 27.28c.23 1.78 1.683 3.15 3.443 3.15 1.599 0 2.947-1.134 3.35-2.679a3.98 3.98 0 0 1-.14 1.112c-1.025 3.757 4.255 6.654 6.844 3.845.416-.212.961-.163 1.635.147a26.31 26.31 0 0 1 .992 5.138 1.19 1.19 0 0 1 .262-.028c.828 0 1.438.7 1.438 1.566v5.647c0 .866-.597 1.566-1.428 1.566-.33 0-.56-.114-.808-.303a26.03 26.03 0 0 1-.057.25c-1.25 5.673-4.282 10.278-8.323 13.066-2.71 1.943-5.867 3.056-9.237 3.056-2.38 0-4.653-.555-6.739-1.565-5.4-2.45-9.528-7.84-10.989-14.81-.248.191-.466.306-.798.306-.83 0-1.327-.7-1.327-1.566v-5.897c1.697 1.411 5.412.99 6.099-1.885.681-2.857 4.09-3.815 6.04-1.699 2.59 2.809 7.034.115 6.011-3.64-.705-2.588 1.318-4.998 3.731-4.777z"/>
            <g>
                <path fill="#D19E9C" fill-rule="nonzero" d="M50.505 51.458a2.68 2.68 0 0 1-.251.396c-.237.32-.543.643-.926.943-1.35 1.058-3.269 1.589-5.923 1.299-1.318-.144-2.248-.66-2.886-1.446a3.81 3.81 0 0 1-.605-1.055 2.615 2.615 0 0 1-.135-.456c-.046-.289-.381-.493-.748-.457-.368.037-.628.3-.582.588.08.502.352 1.22.94 1.945.838 1.034 2.1 1.734 3.831 1.923 3.078.336 5.414-.31 7.056-1.597.808-.634 1.278-1.272 1.488-1.72.127-.273-.051-.575-.399-.675-.347-.1-.732.04-.86.312z"/>
                <path fill="#635E59" d="M38.814 42.765c1.432.372 2.467-1.714 2.436-3.203-.005-.283-.136-1.586-.994-1.739-.856-.153-1.426.444-1.512.55-1.03 1.261-1.496 3.984.07 4.392M50.93 42.978c1.77.23 2.503-1.945 2.122-3.42-.073-.28-.53-1.563-1.572-1.632-1.045-.068-1.577.58-1.652.694-.917 1.355-.834 4.106 1.102 4.358"/>
                <path fill="#D1BFA3" fill-rule="nonzero" d="M40.789 43.292a3.3 3.3 0 0 1-.527.303c-.717.33-1.462.39-2.146.302a.925.925 0 0 1-.156-.026c-1.068-.117-1.79-.027-2.055.228-1.04 1.002-.707 2.063 1.077 2.935.937.457 2.228.618 2.912.38.334-.115.725.003.873.266.148.262-.003.569-.337.685-1.13.392-2.867.175-4.148-.45-2.424-1.184-2.979-2.954-1.403-4.472.646-.622 1.778-.763 3.264-.6l.19.03a2.3 2.3 0 0 0 1.26-.174c.107-.05.21-.109.31-.179.272-.192.69-.174.935.039.244.213.222.541-.05.733z"/>
            </g>
        </g>
    </g>
</svg>
