<?xml version="1.0" encoding="UTF-8"?>
<svg width="24px" height="24px" viewBox="0 0 24 24" version="1.1" xmlns="http://www.w3.org/2000/svg" xmlns:xlink="http://www.w3.org/1999/xlink">
    <!-- Generator: Sketch 56 (81588) - https://sketch.com -->
    <title>add-circle</title>
    <desc>Created with Sketch.</desc>
    <g id="Page-1" stroke="none" stroke-width="1" fill="none" fill-rule="evenodd">
        <g id="add-circle" fill="#0067C5" fill-rule="nonzero">
            <path d="M18.3,11 L13,11 L13,5.7 C13,5.1 12.6,4.7 12,4.7 C11.4,4.7 11,5.1 11,5.7 L11,11 L5.7,11 C5.1,11 4.7,11.4 4.7,12 C4.7,12.6 5.1,13 5.7,13 L11,13 L11,18.3 C11,18.9 11.4,19.3 12,19.3 C12.6,19.3 13,18.9 13,18.3 L13,13 L18.3,13 C18.9,13 19.3,12.6 19.3,12 C19.3,11.4 18.8,11 18.3,11 Z" id="Path"></path>
            <path d="M20.5,3.4 C18.2,1.1 15.2,0 12,0 C8.8,0.1 5.7,1.3 3.5,3.6 C1.2,6 0,9 0,12.2 C0.1,18.9 5.3,24 11.8,24 C11.9,24 11.9,24 12,24 C18.7,23.9 24.1,18.4 24,11.8 C24,8.6 22.7,5.6 20.5,3.4 Z M12,22 C6.5,22.1 2.1,17.8 2,12.2 C1.9,6.7 6.4,2.1 12,2 C12.1,2 12.1,2 12.2,2 C14.8,2 17.2,3 19.1,4.8 C21,6.6 22,9.1 22.1,11.8 C22.1,17.3 17.6,21.9 12,22 Z" id="Shape"></path>
        </g>
    </g>
</svg>