<?xml version="1.0" encoding="UTF-8"?>
<svg width="24px" height="24px" viewBox="0 0 24 24" version="1.1" xmlns="http://www.w3.org/2000/svg" xmlns:xlink="http://www.w3.org/1999/xlink">
    <!-- Generator: Sketch 56 (81588) - https://sketch.com -->
    <title>add-circle</title>
    <desc>Created with Sketch.</desc>
    <g id="Page-1" stroke="none" stroke-width="1" fill="none" fill-rule="evenodd">
        <g id="add-circle" fill="#0067C5" fill-rule="nonzero">
            <path d="M20.5,3.4 C18.2,1.1 15.2,0 12,0 C8.8,0.1 5.7,1.3 3.5,3.6 C1.2,6 0,9 0,12.2 C0.1,18.9 5.3,24 11.8,24 C11.9,24 11.9,24 12,24 C18.7,23.9 24.1,18.4 24,11.8 C24,8.6 22.7,5.6 20.5,3.4 Z M18.3,13 L13,13 L13,18.3 C13,18.9 12.6,19.3 12,19.3 C11.4,19.3 11,18.9 11,18.3 L11,13 L5.7,13 C5.1,13 4.7,12.6 4.7,12 C4.7,11.4 5.1,11 5.7,11 L11,11 L11,5.7 C11,5.1 11.4,4.7 12,4.7 C12.6,4.7 13,5.1 13,5.7 L13,11 L18.3,11 C18.9,11 19.3,11.4 19.3,12 C19.3,12.6 18.8,13 18.3,13 Z" id="Shape"></path>
        </g>
    </g>
</svg>