<?xml version="1.0" encoding="UTF-8"?>
<svg width="52px" height="49px" viewBox="0 0 52 49" version="1.1" xmlns="http://www.w3.org/2000/svg" xmlns:xlink="http://www.w3.org/1999/xlink">
    <!-- Generator: Sketch 61 (89581) - https://sketch.com -->
    <title>Group 24 Copy 4</title>
    <desc>Created with Sketch.</desc>
    <g id="Desktop" stroke="none" stroke-width="1" fill="none" fill-rule="evenodd">
        <g id="Group-24-Copy-4">
            <g id="Group-24-Copy-3">
                <circle id="Oval" fill="#669DB4" cx="27.08" cy="24.9200001" r="24"></circle>
                <path d="M3.3459199,24.8746401 L15.32312,24.8746401 C15.43976,28.4300001 16.09856,32.0458401 17.29736,35.6746402 L6.05239991,35.6746402 C4.38487991,32.4346401 3.4215199,28.7648001 3.3459199,24.8746401 Z M15.31232,22.7146401 L3.3999199,22.7146401 C3.6742399,18.7294401 4.90759991,15.0574401 6.90775992,11.9146401 L17.414,11.9146401 C16.12232,15.3987201 15.42032,19.0167201 15.31232,22.7146401 Z M19.6388,11.9146401 L34.5428,11.9146401 C35.95328,15.3900801 36.68984,19.0102401 36.80648,22.7146401 L17.37296,22.7146401 C17.4896,19.0102401 18.22616,15.3900801 19.6388,11.9146401 Z M17.37944,24.8746401 L36.8,24.8746401 C36.67256,28.4213601 35.97056,32.0328801 34.67456,35.6746402 L19.50272,35.6746402 C18.20888,32.0328801 17.50472,28.4192001 17.37944,24.8746401 Z M38.85848,24.8746401 L50.8378401,24.8746401 C50.8292001,28.7648001 49.8723201,32.4303201 48.2069601,35.6746402 L36.88208,35.6746402 C38.08088,32.0458401 38.73968,28.4321601 38.85848,24.8746401 Z M38.86712,22.7146401 C38.76128,19.0167201 38.05928,15.3987201 36.76544,11.9146401 L46.9671201,11.9146401 C49.0428801,15.0747201 50.3777601,18.7532001 50.7320001,22.7146401 L38.86712,22.7146401 Z M45.3860001,9.75464004 L35.87984,9.75464004 C34.58384,6.87536003 32.87744,4.10408002 30.74336,1.47104001 C36.59912,2.37608001 41.7636801,5.39576003 45.3860001,9.75464004 Z M27.67616,1.19024001 C30.12992,3.90752002 32.07824,6.77384003 33.54704,9.75464004 L20.63456,9.75464004 C22.10768,6.76736003 24.05816,3.89456002 26.52056,1.17296001 C26.70848,1.16864001 26.89856,1.16000001 27.0908,1.16000001 C27.28952,1.16000001 27.48176,1.18592001 27.67616,1.19024001 Z M23.47712,1.42568001 C21.32576,4.07168002 19.6064,6.86024003 18.30608,9.75464004 L8.45647992,9.75464004 C12.0636799,5.33528003 17.32976,2.29400001 23.47712,1.42568001 Z M7.29871992,37.8346402 L18.06632,37.8346402 C19.44872,41.3835202 21.356,44.9280802 23.77304,48.4251202 C16.91504,47.4574402 10.9793599,43.4916802 7.29871992,37.8346402 Z M26.57024,48.6562402 C23.91992,45.0598402 21.86144,41.4396802 20.35376,37.8324802 L33.82568,37.8324802 C32.318,41.4375202 30.26168,45.0555202 27.61352,48.6497602 C27.41048,48.6540802 27.21392,48.6800002 27.01088,48.6800002 C26.85968,48.6800002 26.71712,48.6584002 26.57024,48.6562402 Z M30.4172,48.4078402 C32.82776,44.9151202 34.73072,41.3748802 36.11312,37.8324802 L46.9584801,37.8324802 C43.2929601,43.4484802 37.33136,47.4099202 30.4172,48.4078402 Z" id="line/globe-2" fill="#194D62"></path>
                <circle id="Oval" fill="#FF9100" cx="4" cy="21" r="4"></circle>
                <circle id="Oval-Copy" fill="#FF9100" cx="35" cy="37" r="4"></circle>
                <circle id="Oval-Copy-2" fill="#FF9100" cx="47" cy="11" r="4"></circle>
            </g>
        </g>
    </g>
</svg>