<?xml version="1.0" encoding="UTF-8"?>
<svg width="53px" height="38px" viewBox="0 0 53 38" version="1.1" xmlns="http://www.w3.org/2000/svg" xmlns:xlink="http://www.w3.org/1999/xlink">
    <!-- Generator: Sketch 61 (89581) - https://sketch.com -->
    <title>Group 17</title>
    <desc>Created with Sketch.</desc>
    <g id="Desktop" stroke="none" stroke-width="1" fill="none" fill-rule="evenodd">
        <g id="GDPR-MEDL-2" transform="translate(-614.000000, -233.000000)">
            <g id="Group-17" transform="translate(614.000000, 233.000000)">
                <rect id="Rectangle" fill="#0C5472" x="0" y="0" width="52.7" height="37.2" rx="3.1"></rect>
                <path d="M22.477036,27.125 C22.6204377,29.876369 23.0537325,34.105015 23.7845682,37.2025563 L11.3404016,37.2031068 C10.2689218,34.4747587 9.5830213,30.6003519 9.36594213,27.7031062 L9.32811601,27.125 L22.477036,27.125 Z M39.2098098,27.125 C39.0598404,29.8759013 38.5983419,34.1064845 37.8304101,37.20203 L25.7315853,37.20203 C25.0198503,34.3412028 24.5729548,30.5109397 24.3908989,27.7751394 L24.3514366,27.125 L39.2098098,27.125 Z M52.7,27.125 L52.7,34.1 C52.7,35.8120827 51.3120827,37.2 49.6,37.2 L39.7785526,37.2025563 C40.4539824,34.3398447 40.8752754,30.5110294 41.0484685,27.7750926 L41.0860848,27.125 L52.7,27.125 Z M38.0101935,15.8433134 C38.7710127,18.5610717 39.1902224,21.3961031 39.2596239,24.2812422 L39.2697907,25.2447189 L24.2914557,25.2447189 C24.2830209,22.349274 24.6253052,19.4964739 25.31011,16.7534841 L25.5510529,15.8433134 L38.0101935,15.8433134 Z M23.6072995,15.8433134 C22.8869674,18.569533 22.4945804,21.4038875 22.428772,24.2833237 L22.4189296,25.2447189 L9.3,25.2447189 C9.3734765,22.0735621 10.087015,19.0924057 11.3247947,16.4128475 L11.5980151,15.8433134 L23.6072995,15.8433134 Z M51.7439264,15.8433134 C52.0978104,16.524433 52.4180381,17.2253553 52.7023325,17.9440292 L52.7,25.2433 L41.1404424,25.2447189 C41.1488772,22.356043 40.8293669,19.5054429 40.1819115,16.7559718 L39.9539469,15.8433134 L51.7439264,15.8433134 Z M31.7815604,4.95460554 C34.1258107,7.69053989 35.9181708,10.0448357 37.1616887,13.260357 L37.4197573,13.9630323 L26.1414891,13.9630323 C27.3898399,10.3792165 29.2679892,7.88596377 31.7815604,4.95460554 Z M33.9671115,4.66128169 C40.7438965,5.31279909 46.6501602,8.1926155 50.3182672,13.4760899 L50.6455277,13.9630323 L39.3991243,13.9630323 C38.2051311,10.2983644 36.3907114,7.71673848 33.9671115,4.66128169 Z M29.6016325,4.65 C27.3343576,7.50526953 25.6026448,9.95105562 24.4095419,13.243981 L24.1621221,13.9630323 L12.6570514,13.9630323 C16.2165381,8.31842843 22.3195863,5.30997867 29.6016325,4.65 Z" id="Shape" fill="#FFBD66"></path>
                <circle id="Oval" stroke="#0C5472" stroke-width="1.55" fill="#FF9100" cx="26.35" cy="12.4" r="3.875"></circle>
                <circle id="Oval-Copy-3" stroke="#0C5472" stroke-width="1.55" fill="#FF9100" cx="9.3" cy="26.35" r="3.875"></circle>
                <circle id="Oval-Copy-4" stroke="#0C5472" stroke-width="1.55" fill="#FF9100" cx="40.3" cy="31" r="3.875"></circle>
            </g>
        </g>
    </g>
</svg>