<?xml version="1.0" encoding="UTF-8"?>
<svg width="24px" height="24px" viewBox="0 0 24 24" version="1.1" xmlns="http://www.w3.org/2000/svg" xmlns:xlink="http://www.w3.org/1999/xlink">
    <!-- Generator: Sketch 56.3 (81716) - https://sketch.com -->
    <title>pencil-2 copy</title>
    <desc>Created with Sketch.</desc>
    <g id="Desktop" stroke="none" stroke-width="1" fill="none" fill-rule="evenodd">
        <g id="GDPR-Personopplysning-forside" transform="translate(-925.000000, -2458.000000)" fill="#0067C5" fill-rule="nonzero">
            <g id="pencil-2-copy" transform="translate(924.000000, 2457.000000)">
                <path d="M24.1,3.9 L22,1.8 C20.9,0.7 19,0.7 17.9,1.8 L2.8,17 C2.7,17.1 2.6,17.3 2.5,17.5 L1,23.8 C0.9,24.1 1,24.5 1.3,24.7 C1.5,24.9 1.7,25 2,25 C2.1,25 2.1,25 2.2,25 L8.5,23.5 C8.7,23.5 8.8,23.4 9,23.2 L24.1,8 C25.3,6.9 25.3,5 24.1,3.9 Z M8.2,21.3 L4.8,17.9 L16.9,5.6 L20.3,9.1 L8.2,21.3 Z M4.2,18.7 L7.3,21.8 L3.3,22.7 L4.2,18.7 Z M22.8,6.7 L21,8.4 L17.6,4.9 L19.3,3.2 C19.7,2.8 20.3,2.8 20.7,3.2 L22.8,5.3 C23.1,5.7 23.1,6.3 22.8,6.7 Z" id="Shape"></path>
            </g>
        </g>
    </g>
</svg>