<svg xmlns="http://www.w3.org/2000/svg" width="73" height="59" viewBox="0 0 73 59">
    <g fill="none" fill-rule="evenodd">
        <path fill="#9BD0B0" d="M5.615 0H73v42.143H5.615z"/>
        <path fill="#117938" d="M14.038 19.207V8.617h1.437l5.56 8.314V8.616h1.342v10.591H20.94l-5.559-8.322v8.322h-1.343zm10.266-5.158c0-1.758.472-3.134 1.415-4.129.944-.994 2.161-1.491 3.653-1.491.978 0 1.858.233 2.643.7a4.575 4.575 0 0 1 1.794 1.954c.411.836.617 1.784.617 2.843 0 1.074-.217 2.035-.65 2.883-.433.847-1.046 1.489-1.84 1.925a5.257 5.257 0 0 1-2.57.654c-.997 0-1.887-.241-2.672-.723a4.648 4.648 0 0 1-1.783-1.972 5.98 5.98 0 0 1-.607-2.644zm1.444.022c0 1.276.343 2.281 1.03 3.016.685.734 1.545 1.101 2.58 1.101 1.054 0 1.922-.37 2.603-1.112.68-.742 1.021-1.794 1.021-3.157 0-.862-.145-1.615-.437-2.258a3.357 3.357 0 0 0-1.277-1.495 3.463 3.463 0 0 0-1.888-.531 3.58 3.58 0 0 0-2.56 1.022c-.714.682-1.072 1.82-1.072 3.414zm10.425 5.136V8.617h1.4v5.251l5.256-5.252h1.9l-4.44 4.292 4.634 6.299h-1.848l-3.769-5.36-1.732 1.69v3.67h-1.4z"/>
        <path fill="#CDE7D8" d="M58.961 0h8.423v42.143h-8.423z"/>
        <path fill="#E3B0A8" d="M2.808 2.81h67.385v42.143H2.808z"/>
        <path fill="#88392B" d="M11.23 22.016v-10.59h1.437l5.56 8.315v-8.315h1.342v10.59h-1.436l-5.56-8.322v8.322h-1.342zm10.267-5.158c0-1.757.471-3.134 1.415-4.128.943-.995 2.16-1.492 3.653-1.492.977 0 1.858.234 2.642.7a4.575 4.575 0 0 1 1.794 1.955c.412.836.617 1.783.617 2.843 0 1.074-.216 2.034-.65 2.882-.433.848-1.046 1.49-1.84 1.925a5.257 5.257 0 0 1-2.57.654c-.997 0-1.887-.24-2.672-.722a4.648 4.648 0 0 1-1.783-1.973 5.98 5.98 0 0 1-.606-2.644zm1.444.022c0 1.276.343 2.282 1.028 3.016.686.735 1.547 1.102 2.581 1.102 1.054 0 1.922-.371 2.603-1.113.681-.741 1.021-1.794 1.021-3.157 0-.862-.145-1.614-.436-2.257a3.357 3.357 0 0 0-1.278-1.496 3.463 3.463 0 0 0-1.888-.53 3.58 3.58 0 0 0-2.56 1.022c-.714.681-1.071 1.819-1.071 3.413zm10.424 5.136v-10.59h1.401v5.252l5.256-5.252h1.898l-4.44 4.291 4.635 6.3h-1.848l-3.768-5.36-1.733 1.69v3.67h-1.4z"/>
        <path fill="#F1D8D4" d="M56.154 2.81h8.423v42.143h-8.423z"/>
        <g>
            <path fill="#D1F0B3" d="M0 5.619h67.385v42.143H0z"/>
            <path fill="#4E737C" d="M8.423 24.826v-10.59H9.86l5.559 8.314v-8.315h1.342v10.591h-1.436l-5.56-8.322v8.322H8.424zm10.266-5.158c0-1.758.472-3.134 1.415-4.129.943-.994 2.161-1.491 3.653-1.491.977 0 1.858.233 2.642.7a4.575 4.575 0 0 1 1.794 1.954c.412.836.618 1.784.618 2.843 0 1.074-.217 2.035-.65 2.883-.433.847-1.047 1.489-1.841 1.925a5.257 5.257 0 0 1-2.57.654c-.996 0-1.887-.241-2.671-.723a4.648 4.648 0 0 1-1.783-1.972 5.98 5.98 0 0 1-.607-2.644zm1.444.022c0 1.276.343 2.281 1.029 3.016.686.734 1.546 1.101 2.58 1.101 1.055 0 1.922-.37 2.603-1.112.681-.742 1.022-1.794 1.022-3.157 0-.862-.146-1.615-.437-2.258a3.357 3.357 0 0 0-1.278-1.495 3.463 3.463 0 0 0-1.888-.531 3.58 3.58 0 0 0-2.559 1.022c-.715.682-1.072 1.82-1.072 3.414zm10.425 5.136v-10.59h1.4v5.251l5.256-5.252h1.899l-4.44 4.292 4.635 6.299H37.46l-3.769-5.36-1.733 1.69v3.67h-1.4z"/>
            <path fill="#E0F5FB" d="M53.346 5.619h8.423v42.143h-8.423z"/>
        </g>
        <ellipse cx="16.846" cy="47.762" fill="#D8A25C" fill-rule="nonzero" rx="11.231" ry="11.238"/>
        <ellipse cx="30.885" cy="50.571" fill-rule="nonzero" stroke="#D8D8D8" stroke-width="2" rx="7.423" ry="7.429"/>
    </g>
</svg>
