<?xml version="1.0" encoding="UTF-8"?>
<svg width="60px" height="52px" viewBox="0 0 60 52" version="1.1" xmlns="http://www.w3.org/2000/svg" xmlns:xlink="http://www.w3.org/1999/xlink">
    <!-- Generator: Sketch 53.2 (72643) - https://sketchapp.com -->
    <title>piggy-bank</title>
    <desc>Created with Sketch.</desc>
    <g id="Page-1" stroke="none" stroke-width="1" fill="none" fill-rule="evenodd">
        <g id="Artboard" transform="translate(-55.000000, -261.000000)" fill-rule="nonzero">
            <g id="piggy-bank" transform="translate(55.000000, 261.000000)">
                <path d="M39.3846155,43.9624617 L38.1538463,44.4203078 C35.4658463,45.2769232 32.5710771,45.7692309 29.5384617,45.7692309 C26.9823995,45.7692309 24.4992122,45.4368506 22.1538463,44.8113598 L22.1538463,49.4615386 C22.1538463,50.8210088 21.051778,51.9230771 19.6923078,51.9230771 C18.3328377,51.9230771 17.2307694,50.8210088 17.2307694,49.4615386 L17.2307694,42.9678282 C12.855065,40.8245225 9.28188058,37.5474495 7.11384618,33.4615386 L1.23076924,33.4615386 C0.551384617,33.4615386 -1.13686838e-13,32.9076925 -1.13686838e-13,32.2307694 L-1.13686838e-13,22.3846155 C-1.13686838e-13,21.7052309 0.551384617,21.1538463 1.23076924,21.1538463 L5.3046154,21.1538463 C6.38030772,16.0658462 9.68615389,11.4504616 14.5427693,8.27261542 C14.0578462,6.36246157 12.8,4.68615386 11.0744616,3.68923078 C10.6953847,3.46769232 10.4615385,3.06400002 10.4615385,2.62338463 C10.4615385,2.18276925 10.6953847,1.77661538 11.0744616,1.56000001 C12.576,0.688615386 14.2793847,0.230769231 16,0.230769231 C19.2320002,0.230769231 22.2498463,1.83076923 24.0812309,4.46215386 C25.9126155,4.10276925 27.7440002,3.92307694 29.5384617,3.92307694 C42.5427694,3.92307694 53.1963078,12.5433847 54.0676925,23.4135386 C55.5396926,22.9286155 56.6153849,21.5575386 56.6153849,19.9230771 C56.6153849,19.2436925 57.1667695,18.6923077 57.8461542,18.6923077 C58.5255388,18.6923077 59.0769234,19.2436925 59.0769234,19.9230771 C59.0769234,22.9163078 56.9230772,25.4098463 54.0873848,25.9587694 C53.6891032,32.3251465 49.9403098,37.9407515 44.3076925,41.5484229 L44.3076925,49.4615386 C44.3076925,50.8210088 43.2056242,51.9230771 41.846154,51.9230771 C40.4866838,51.9230771 39.3846155,50.8210088 39.3846155,49.4615386 L39.3846155,43.9624617 L39.3846155,43.9624617 Z" id="Path" fill="#D6897D"></path>
                <path d="M14.7692308,22.3846155 C13.4104616,22.3846155 12.3076924,21.2793848 12.3076924,19.9230771 C12.3076924,18.5643078 13.4104616,17.4615386 14.7692308,17.4615386 C16.1255385,17.4615386 17.2307692,18.5643078 17.2307692,19.9230771 C17.2307692,21.2793848 16.1255385,22.3846155 14.7692308,22.3846155 Z" id="Path" fill="#59514B"></path>
                <path d="M41.5975386,16.8698574 C41.3563078,17.2567478 40.9870771,17.4605298 40.6129232,17.4605298 C40.3569232,17.4605298 40.0960002,17.3630689 39.8744617,17.1622403 C36.5858463,14.1970647 32.4947694,12.746964 28.3889232,13.0718338 C27.7193848,13.1279477 27.1236925,12.5136484 27.0793848,11.6985204 C27.0326155,10.8863459 27.5470771,10.1804923 28.2264617,10.1273318 C32.9329232,9.75520818 37.5926155,11.4120443 41.3538463,14.802504 C41.8978463,15.2927621 42.006154,16.2171645 41.5975386,16.8698574 Z" id="Path" fill="#FFFFFF"></path>
                <ellipse id="Oval" fill="#C86151" cx="12.3076924" cy="28.5384617" rx="4.92307692" ry="6.15384615"></ellipse>
            </g>
        </g>
    </g>
</svg>