<?xml version="1.0" encoding="UTF-8"?>
<svg width="62px" height="55px" viewBox="0 0 62 55" version="1.1" xmlns="http://www.w3.org/2000/svg" xmlns:xlink="http://www.w3.org/1999/xlink">
    <!-- Generator: Sketch 53.2 (72643) - https://sketchapp.com -->
    <title>piggy-bank</title>
    <desc>Created with Sketch.</desc>
    <g id="Page-1" stroke="none" stroke-width="1" fill="none" fill-rule="evenodd">
        <g id="piggy-bank" transform="translate(0.000000, -1.000000)" fill-rule="nonzero">
            <path d="M40.6974361,46.7609602 L39.4256412,47.2371202 C36.6480412,48.1280002 33.6567796,48.6400002 30.5230771,48.6400002 C27.8818129,48.6400002 25.3158526,48.2943246 22.8923079,47.6438142 L22.8923079,52.4800002 C22.8923079,53.8938491 21.7535039,55.0400002 20.3487181,55.0400002 C18.9439323,55.0400002 17.8051284,53.8938491 17.8051284,52.4800002 L17.8051284,45.7265413 C13.2835671,43.4975034 9.5912766,40.0893475 7.35097439,35.8400002 L1.27179488,35.8400002 C0.569764104,35.8400002 -7.10542736e-14,35.2640002 -7.10542736e-14,34.5600002 L-7.10542736e-14,24.3200002 C-7.10542736e-14,23.6134402 0.569764104,23.0400002 1.27179488,23.0400002 L5.48143591,23.0400002 C6.59298465,17.74848 10.0090257,12.94848 15.0275283,9.64352003 C14.5264411,7.65696003 13.2266667,5.91360002 11.4436103,4.87680002 C11.0518975,4.64640002 10.8102565,4.22656002 10.8102565,3.76832002 C10.8102565,3.31008002 11.0518975,2.88768 11.4436103,2.66240001 C12.9952,1.75616 14.7553642,1.28 16.5333333,1.28 C19.8730668,1.28 22.9915079,2.944 24.8839386,5.68064002 C26.7763694,5.30688002 28.6688002,5.12000002 30.5230771,5.12000002 C43.9608617,5.12000002 54.9695181,14.08512 55.8699489,25.3900802 C57.3910157,24.8857602 58.5025644,23.4598402 58.5025644,21.7600002 C58.5025644,21.0534402 59.0723285,20.48 59.7743593,20.48 C60.4763901,20.48 61.0461542,21.0534402 61.0461542,21.7600002 C61.0461542,24.8729602 58.8205131,27.4662402 55.8902976,28.0371202 C55.47874,34.6581523 51.6049868,40.4983816 45.7846155,44.2503598 L45.7846155,52.4800002 C45.7846155,53.8938491 44.6458116,55.0400002 43.2410258,55.0400002 C41.83624,55.0400002 40.6974361,53.8938491 40.6974361,52.4800002 L40.6974361,46.7609602 L40.6974361,46.7609602 Z" id="Path" fill="#E3B0A8"></path>
            <path d="M15.2615385,24.3200002 C13.857477,24.3200002 12.7179488,23.1705602 12.7179488,21.7600002 C12.7179488,20.3468802 13.857477,19.2000002 15.2615385,19.2000002 C16.6630564,19.2000002 17.8051282,20.3468802 17.8051282,21.7600002 C17.8051282,23.1705602 16.6630564,24.3200002 15.2615385,24.3200002 Z" id="Path" fill="#59514B"></path>
            <path d="M42.9841232,18.5846517 C42.7348514,18.9870178 42.353313,19.198951 41.9666873,19.198951 C41.702154,19.198951 41.4325335,19.0975917 41.2036104,18.8887299 C37.8053745,15.8049473 33.5779284,14.2968425 29.3352207,14.6347071 C28.6433643,14.6930656 28.0278155,14.0541943 27.9820309,13.2064612 C27.9337027,12.3617997 28.465313,11.627712 29.1673437,11.5724251 C34.0306873,11.1854165 38.8457027,12.9085261 42.7323079,16.4346041 C43.2944412,16.9444725 43.4063591,17.905851 42.9841232,18.5846517 Z" id="Path" fill="#FFFFFF"></path>
            <ellipse id="Oval" fill="#D6897D" cx="12.7179488" cy="30.7200002" rx="5.08717949" ry="6.4"></ellipse>
        </g>
    </g>
</svg>