<?xml version="1.0" encoding="UTF-8"?>
<svg width="52px" height="62px" viewBox="0 0 52 62" version="1.1" xmlns="http://www.w3.org/2000/svg" xmlns:xlink="http://www.w3.org/1999/xlink">
    <!-- Generator: Sketch 53.2 (72643) - https://sketchapp.com -->
    <title>book-contact-2 Copy</title>
    <desc>Created with Sketch.</desc>
    <g id="Page-1" stroke="none" stroke-width="1" fill="none" fill-rule="evenodd">
        <g id="book-contact-2-Copy">
            <path d="M6.74545455,0 L49.1454545,0 L49.1454545,12.7179487 L6.74545455,12.7179487 C3.19744342,12.7179487 0.321212121,9.87093892 0.321212121,6.35897436 C0.321212121,2.84700979 3.19744342,6.45137425e-16 6.74545455,0 Z" id="Rectangle" fill="#E7E9E9"></path>
            <path d="M50.4303032,10.1743589 L6.74545447,10.1743589 C4.62031506,10.1743589 2.89090899,8.46252298 2.89090899,6.35897426 C2.89090899,4.25542553 4.62031506,2.54358963 6.74545447,2.54358963 L50.4303032,2.54358963 C51.1395396,2.54358963 51.7151517,1.97382553 51.7151517,1.27179475 C51.7151517,0.572307567 51.1395396,-1.27999027e-07 50.4303032,-1.27999027e-07 L6.74545447,-1.27999027e-07 C3.20184233,-1.27999027e-07 0.321212009,2.85390758 0.321212009,6.35897426 C0.321212009,6.65911785 0.341769585,6.95417426 0.380315039,7.2415999 C0.341769585,7.3662358 0.321212009,7.49595888 0.321212009,7.63076913 L0.321212009,54.6871796 C0.321212009,58.1922463 3.20184233,61.046154 6.74545447,61.046154 L50.4303032,61.046154 C51.1395396,61.046154 51.7151517,60.4763899 51.7151517,59.7743591 L51.7151517,11.4461538 C51.7151517,10.7466666 51.1395396,10.1743589 50.4303032,10.1743589 Z" id="Fill/book-contact-2" fill="#D6897D" fill-rule="nonzero"></path>
            <path d="M37.5818183,48.3282051 L14.4545455,48.3282051 C13.7453091,48.3282051 13.169697,47.758441 13.169697,47.0564103 C13.169697,39.3010051 17.2966303,35.5542974 21.2976485,34.0001641 C19.4834424,32.6037333 18.3090909,30.4264205 18.3090909,27.9794872 C18.3090909,23.7723897 21.767903,20.3487179 26.0181818,20.3487179 C30.2684606,20.3487179 33.7272729,23.7723897 33.7272729,27.9794872 C33.7272729,30.4264205 32.5529214,32.6037333 30.7387152,34.0001641 C34.7397335,35.5517538 38.8666668,39.3010051 38.8666668,47.0564103 C38.8666668,47.758441 38.2910547,48.3282051 37.5818183,48.3282051 Z" id="Path" fill="#E7E9E9" fill-rule="nonzero"></path>
            <path d="M6.74545447,5.08717938 C6.0362181,5.08717938 5.46060598,5.65948707 5.46060598,6.35897426 C5.46060598,7.06100503 6.0362181,7.63076914 6.74545447,7.63076914 L47.8606062,7.63076914 C48.5698426,7.63076914 49.1454547,7.06100503 49.1454547,6.35897426 C49.1454547,5.65948707 48.5698426,5.08717938 47.8606062,5.08717938 L6.74545447,5.08717938 Z" id="Path" fill="#C6C2BF"></path>
        </g>
    </g>
</svg>