<?xml version="1.0" encoding="UTF-8"?>
<svg width="37px" height="48px" viewBox="0 0 37 48" version="1.1" xmlns="http://www.w3.org/2000/svg" xmlns:xlink="http://www.w3.org/1999/xlink">
    <!-- Generator: Sketch 60.1 (88133) - https://sketch.com -->
    <title>Group 17</title>
    <desc>Created with Sketch.</desc>
    <g id="Desktop" stroke="none" stroke-width="1" fill="none" fill-rule="evenodd">
        <g id="GDPR-skattekort" transform="translate(-622.000000, -228.000000)">
            <g id="Group-17" transform="translate(622.000000, 228.000000)">
                <g id="Color/17-files/file-checklist">
                    <g id="Group" transform="translate(0.350000, 0.000000)">
                        <path d="M1.7,0 L23.8,0 L35.7,11.9 L35.7,45.7692308 C35.7,46.7803367 34.9388841,47.6 34,47.6 L1.7,47.6 C0.761115925,47.6 0,46.7803367 0,45.7692308 L0,1.83076923 C0,0.819663304 0.761115925,0 1.7,0 Z" id="Rectangle" fill="#E4E4DB"></path>
                        <path d="M23.8,0 L35.7,11.9 L25.5,11.9 C24.5611159,11.9 23.8,11.1388841 23.8,10.2 L23.8,0 L23.8,0 Z" id="Path" fill="#B7B1A9"></path>
                    </g>
                </g>
                <g id="Fill/24-business-finance/percent-2" transform="translate(11.200000, 28.000000)" fill="#0067C5">
                    <path d="M12.0440834,0.0851666379 C12.1578334,-0.0285833626 12.34275,-0.0285833626 12.4565,0.0851666379 L12.4565,0.0851666379 L13.9148334,1.54349998 C14.0285834,1.65783331 14.0285834,1.84216665 13.9148334,1.95649998 L13.9148334,1.95649998 L1.95649998,13.9148334 C1.89933331,13.9714167 1.82466665,14 1.74999998,14 C1.67533331,14 1.60066664,13.9714167 1.54408331,13.91425 L1.54408331,13.91425 L0.0857499712,12.4559167 C-0.0280000293,12.3421667 -0.0280000293,12.15725 0.0857499712,12.0435 L0.0857499712,12.0435 Z M11.375,8.75000001 C12.82225,8.75000001 14,9.92716668 14,11.375 C14,12.8228334 12.82225,14 11.375,14 C9.92775001,14 8.75000001,12.8228334 8.75000001,11.375 C8.75000001,9.92716668 9.92775001,8.75000001 11.375,8.75000001 Z M2.62499998,-2.91660237e-08 C4.07224999,-2.91660237e-08 5.24999999,1.17716664 5.24999999,2.62499998 C5.24999999,4.07283332 4.07224999,5.24999999 2.62499998,5.24999999 C1.17774998,5.24999999 -2.9166667e-08,4.07283332 -2.9166667e-08,2.62499998 C-2.9166667e-08,1.17716664 1.17774998,-2.91660237e-08 2.62499998,-2.91660237e-08 Z" id="Combined-Shape"></path>
                </g>
                <rect id="Rectangle" fill="#78706A" x="5.6" y="21" width="25.2" height="2.8"></rect>
                <rect id="Rectangle-Copy-5" fill="#78706A" x="5.6" y="14" width="25.2" height="2.8"></rect>
            </g>
        </g>
    </g>
</svg>