<?xml version="1.0" encoding="UTF-8"?>
<svg width="38px" height="37px" viewBox="0 0 38 37" version="1.1" xmlns="http://www.w3.org/2000/svg" xmlns:xlink="http://www.w3.org/1999/xlink">
    <!-- Generator: Sketch 53.2 (72643) - https://sketchapp.com -->
    <title>@1xColor/01-edition/search</title>
    <desc>Created with Sketch.</desc>
    <g id="Page-4" stroke="none" stroke-width="1" fill="none" fill-rule="evenodd">
        <g id="Ditt-NAV-GDPR" transform="translate(-265.000000, -2203.000000)">
            <g id="Color/01-edition/search" transform="translate(265.000000, 2203.000000)">
                <g id="Group">
                    <path d="M13.76256,27.52512 C6.16170799,27.52512 0,21.363412 0,13.76256 C0,6.16170799 6.16170799,0 13.76256,0 C21.363412,0 27.52512,6.16170799 27.52512,13.76256 C27.52512,21.363412 21.363412,27.52512 13.76256,27.52512 Z M13.76256,24.94464 C19.9382523,24.94464 24.94464,19.9382523 24.94464,13.76256 C24.94464,7.58686774 19.9382523,2.58048 13.76256,2.58048 C7.58686774,2.58048 2.58048,7.58686774 2.58048,13.76256 C2.58048,19.9382523 7.58686774,24.94464 13.76256,24.94464 Z" id="Shape" fill="#3E3832" fill-rule="nonzero"></path>
                    <path d="M22.8640825,22.0039225 C23.5306457,21.3373592 24.6113584,21.3373592 25.2779216,22.0039225 L37.3471175,34.0731184 C38.0136808,34.7396816 38.0136808,35.8203943 37.3471175,36.4869575 C36.6805543,37.1535208 35.5998416,37.1535208 34.9332784,36.4869575 L22.8640825,24.4177616 C22.1975192,23.7511984 22.1975192,22.6704857 22.8640825,22.0039225 Z" id="Rectangle" fill="#3E3832" fill-rule="nonzero"></path>
                    <circle id="Oval" fill="#C2EAF7" fill-rule="nonzero" opacity="0.495117188" cx="13.76256" cy="13.76256" r="11.18208"></circle>
                    <path d="M10.32192,20.954927 C11.1270205,21.2625179 11.993031,21.4298298 12.8950452,21.4298298 C17.1738478,21.4298298 20.6425028,17.6650051 20.6425028,13.0208584 C20.6425028,10.1009804 19.2713727,7.52869099 17.1898276,6.02112 C20.2038091,7.17261999 22.36416,10.2900742 22.36416,13.9551886 C22.36416,18.5993353 18.8955051,22.36416 14.6167024,22.36416 C13.0280779,22.36416 11.5511299,21.8451894 10.32192,20.954927 Z" id="Path" fill="#FFFFFF" fill-rule="nonzero"></path>
                </g>
            </g>
        </g>
    </g>
</svg>