<svg xmlns="http://www.w3.org/2000/svg" xmlns:xlink="http://www.w3.org/1999/xlink" width="93" height="93" viewBox="0 0 93 93">
    <defs>
        <path id="a" d="M.296.273h19.56v19.56H.297z"/>
    </defs>
    <g fill="none" fill-rule="evenodd">
        <path fill="#F8CAC6" d="M11.61 50.58l-8.912.179s-7.825 9.78 3.179 22.006c0 0 5.378 1.466 9.29 1.466M27.292 84.311v7.871s5.725 1.223 12.815 0v-3.929M67.005 83.222v8.92s-5.725 1.314-12.815 0v-4.187"/>
        <path fill="#F4A9A8" d="M67.005 82.043V92.14c-.856.387-7.815.925-8.023.297-.208-.626 2.887-5.052 2.48-7.332-.408-2.278 5.543-3.063 5.543-3.063M39.656 83.939l.163 7.906s-4.707 1.08-5.298 0c-.42-.77 1.386-3.423.98-5.542-.409-2.119 4.155-2.364 4.155-2.364"/>
        <path fill="#F8CAC6" d="M82.408 52.775s9.291-.428 10.086-5.38c0 0 3.18 9.232-9.353 14.244"/>
        <path fill="#F8CAC6" d="M83.234 58.831c0 16.48-16.343 29.837-36.502 29.837-20.16 0-36.502-13.358-36.502-29.837 0-16.478 16.343-29.836 36.501-29.836 20.16 0 36.503 13.358 36.503 29.836"/>
        <path fill="#F8CAC6" d="M30.389 40s6.357-10.881-6.603-13.51l-.488 10.148"/>
        <path stroke="#4B133B" stroke-linecap="round" stroke-width="2.934" d="M38.946 37.31s10.208-5.013 22.19.978"/>
        <path fill="#1D1D1B" d="M23.389 49.78a2.567 2.567 0 1 1-5.133 0 2.567 2.567 0 0 1 5.133 0"/>
        <g transform="translate(37 .727)">
            <mask id="b" fill="#fff">
                <use xlink:href="#a"/>
            </mask>
            <path fill="#DBDA00" d="M19.857 10.054c0 5.4-4.38 9.78-9.78 9.78-5.402 0-9.781-4.38-9.781-9.78 0-5.402 4.379-9.781 9.78-9.781 5.402 0 9.78 4.379 9.78 9.78" mask="url(#b)"/>
        </g>
        <path fill="#F6EB64" d="M55.757 10.78a8.68 8.68 0 1 1-17.361 0 8.68 8.68 0 0 1 17.361 0"/>
        <path stroke="#DBDA00" stroke-width="1.956" d="M55.757 10.78a8.68 8.68 0 1 1-17.361 0 8.68 8.68 0 0 1 17.361 0z"/>
        <path fill="#F4A9A8" d="M83.234 60.62s-3.735 31.504-45.388 26.894c0 0 .17-.671 1.252-2.171 1.227-1.702 1.444-2.747 1.444-2.747s29.79 12.103 42.692-21.975"/>
        <path stroke="#1D1D1B" stroke-width=".196" d="M55.017 10.78a7.94 7.94 0 0 1-7.94 7.94 7.94 7.94 0 1 1 7.94-7.94z"/>
    </g>
</svg>
