<?xml version="1.0" encoding="UTF-8"?>
<svg width="34px" height="34px" viewBox="0 0 34 34" version="1.1" xmlns="http://www.w3.org/2000/svg" xmlns:xlink="http://www.w3.org/1999/xlink">
    <!-- Generator: Sketch 55 (78076) - https://sketchapp.com -->
    <title>Color/32-content/box-2 Copy 2@1x</title>
    <desc>Created with Sketch.</desc>
    <g id="Page-1" stroke="none" stroke-width="1" fill="none" fill-rule="evenodd">
        <g id="GDPR-Personopplysning" transform="translate(-309.000000, -4950.000000)">
            <g id="Color/40-health/first-aid-plaster" transform="translate(309.000000, 4950.000000)">
                <g id="Group-2">
                    <polygon id="Rectangle" fill="#FFD399" points="8.4 19.2036923 19.2036923 8.4 25.2 14.3963077 14.3963077 25.2"></polygon>
                    <path d="M2.2382397,2.2382397 C5.45718676,-0.980707364 10.9632979,-0.693540569 14.5364832,2.87964469 L19.1774476,7.52060908 C19.7408508,8.08401232 19.7408508,8.99746946 19.1774476,9.5608727 L9.5608727,19.1774476 C8.99746946,19.7408508 8.08401232,19.7408508 7.52060908,19.1774476 L2.87964469,14.5364832 C-0.693540569,10.9632979 -0.980707364,5.45718676 2.2382397,2.2382397 Z" id="Rectangle" fill="#FFBD66"></path>
                    <path d="M31.3617603,31.3617603 C28.1428132,34.5807074 22.6367021,34.2935406 19.0635168,30.7203553 L14.4225524,26.0793909 C13.8591492,25.5159877 13.8591492,24.6025305 14.4225524,24.0391273 L24.0391273,14.4225524 C24.6025305,13.8591492 25.5159877,13.8591492 26.0793909,14.4225524 L30.7203553,19.0635168 C34.2935406,22.6367021 34.5807074,28.1428132 31.3617603,31.3617603 Z" id="Rectangle-Copy" fill="#FFBD66"></path>
                    <g id="Group" transform="translate(4.200000, 4.200000)" fill="#B26D14">
                        <circle id="Oval" cx="3.5" cy="0.7" r="1"></circle>
                        <circle id="Oval-Copy-3" cx="7.7" cy="2.1" r="1"></circle>
                        <circle id="Oval-Copy" cx="4.9" cy="4.9" r="1"></circle>
                        <circle id="Oval-Copy-2" cx="0.7" cy="3.5" r="1"></circle>
                        <circle id="Oval-Copy-4" cx="2.1" cy="7.7" r="1"></circle>
                        <circle id="Oval-Copy-5" cx="6.3" cy="9.1" r="1"></circle>
                        <circle id="Oval-Copy-6" cx="9.1" cy="6.3" r="1"></circle>
                    </g>
                    <g id="Group-Copy" transform="translate(19.600000, 19.600000)" fill="#B26D14">
                        <circle id="Oval" cx="3.5" cy="0.7" r="1"></circle>
                        <circle id="Oval-Copy-3" cx="7.7" cy="2.1" r="1"></circle>
                        <circle id="Oval-Copy" cx="4.9" cy="4.9" r="1"></circle>
                        <circle id="Oval-Copy-2" cx="0.7" cy="3.5" r="1"></circle>
                        <circle id="Oval-Copy-4" cx="2.1" cy="7.7" r="1"></circle>
                        <circle id="Oval-Copy-5" cx="6.3" cy="9.1" r="1"></circle>
                        <circle id="Oval-Copy-6" cx="9.1" cy="6.3" r="1"></circle>
                    </g>
                </g>
            </g>
        </g>
    </g>
</svg>