<?xml version="1.0" encoding="UTF-8"?>
<svg width="50px" height="59px" viewBox="0 0 50 59" version="1.1" xmlns="http://www.w3.org/2000/svg" xmlns:xlink="http://www.w3.org/1999/xlink">
    <!-- Generator: Sketch 53.2 (72643) - https://sketchapp.com -->
    <title>Ikon sykefravær</title>
    <desc>Created with Sketch.</desc>
    <g id="Page-1" stroke="none" stroke-width="1" fill="none" fill-rule="evenodd">
        <g id="Ikon-sykefravær" fill-rule="nonzero">
            <path d="M7.85993849,24.2270681 L7.85993849,24.2270681 C10.840251,24.2844735 13.3217197,21.8941762 13.3806885,18.9154735 C13.4396572,15.9367708 11.0538135,13.4523924 8.07350099,13.3933924 C5.09637599,13.3343924 2.61171974,15.7230951 2.55275099,18.7033924 C2.49537599,21.6820951 4.88281349,24.1664735 7.85993849,24.2270681" id="Fill-89" fill="#CBC9C7"></path>
            <path d="M7.87077599,23.4913222 C10.2502447,23.5295924 12.2137447,21.6320249 12.2583697,19.2481059 C12.3029947,16.8673762 10.408026,14.8868897 8.03493224,14.8342681 C5.62996349,14.7816465 3.63618224,16.7142951 3.61386974,19.1157546 C3.59315099,21.5124303 5.48015099,23.4514573 7.87077599,23.4913222 M5.91843224,26.8543222 C5.64111974,26.7618357 5.42596349,26.6980519 5.22036974,26.6199168 C1.18499474,25.1050519 -0.926724006,20.774133 0.391307244,16.7047276 C1.69021349,12.6783762 5.95986974,10.3885383 10.0621822,11.5207005 C13.4823697,12.4615113 15.8299635,15.5550248 15.871401,19.1747546 C15.909651,22.6238627 13.5556822,25.7652141 10.1625885,26.7698086 C9.75936974,26.8894032 9.49799474,26.9787005 9.49161974,27.5320249 C9.42308849,32.6203762 9.29718224,37.7055384 9.21430724,42.7922951 C9.11708849,48.8549438 13.5046822,53.7838357 19.5290572,54.4264573 C26.039526,55.1201059 32.9548072,49.8340249 31.9953697,41.1865384 C30.4621822,40.6459708 28.9353697,40.2234032 27.5073697,39.5807816 C24.7358385,38.3354032 22.342026,36.5542411 20.550651,34.0523222 C19.6804635,32.8388357 19.0429635,31.5153222 19.0700572,29.9892951 C19.180026,23.5008897 19.2549322,17.0124843 19.473276,10.5288627 C19.5912135,7.08294375 21.353901,4.5315924 24.3963697,2.91148429 C24.8298697,2.67867348 25.115151,2.41237618 25.3414635,1.97067348 C26.1319635,0.420727538 27.9153697,-0.328731922 29.571276,0.1368897 C31.2574635,0.6088897 32.3985885,2.1428897 32.3348385,3.8538897 C32.2726822,5.60475456 30.9960885,7.07497078 29.2748385,7.40026807 C27.913776,7.65540321 26.798151,7.17861942 25.810026,6.24897078 C24.018651,7.33807888 23.0863072,8.90556537 23.0416822,10.9785383 C22.9125885,17.0890249 22.8169635,23.1963222 22.6639635,29.3068086 C22.635276,30.4453492 22.973151,31.3909438 23.655276,32.2568086 C24.8314635,33.7477546 26.3120572,34.8623762 27.9424635,35.7952141 C33.485526,38.9668627 40.6749322,37.5062141 44.5700572,32.4194573 C45.1422135,31.6747816 45.4625572,30.8742951 45.4625572,29.9047816 C45.4593697,27.7728086 45.5310885,25.6392411 45.572526,23.5056735 C45.6522135,19.4187276 45.751026,15.3317816 45.8052135,11.2416465 C45.8323072,9.21970051 44.8983697,7.70164645 43.2408697,6.58702483 C42.2925885,7.43694375 41.263026,7.84994375 40.0661197,7.66815997 C38.2237447,7.38910591 36.9136822,5.92207888 36.8531197,4.13294375 C36.7909635,2.26248429 37.986276,0.715727538 39.809526,0.312295105 C41.549901,-0.0704075968 43.2440572,0.849673484 44.0249947,2.57980861 C44.1206197,2.79826807 44.310276,3.0262951 44.5158697,3.14270051 C47.8388385,5.01953834 49.4835885,7.84834915 49.4070885,11.6689978 C49.2923385,17.6678627 49.129776,23.6667276 49.0819635,29.6655924 C49.066026,31.7959708 48.345651,33.5659708 46.9702447,35.111133 C44.2863697,38.1344843 40.906026,39.9682681 36.9901822,40.8676195 C36.5630572,40.9680789 36.131151,41.0414303 35.742276,41.1179708 C35.6307135,42.6408086 35.6163697,44.1126195 35.4059947,45.5557276 C34.2648697,53.4952141 26.2801822,59.2692411 18.351276,57.9345654 C10.7443072,56.6493222 5.47696349,50.3219708 5.61083849,42.6105113 C5.69849474,37.5444843 5.80686974,32.4816465 5.90727599,27.4140249 C5.91046349,27.2402141 5.91205724,27.0648086 5.91843224,26.8543222" id="Fill-90" fill="#515658"></path>
            <path d="M3.06928536,19.1623168 C3.06928536,21.7646951 5.17622286,23.8743438 7.77722286,23.8743438 C10.3782229,23.8743438 12.4867541,21.7646951 12.4867541,19.1623168 C12.4867541,16.5599384 10.3782229,14.4502897 7.77722286,14.4502897 C5.17622286,14.4502897 3.06928536,16.5599384 3.06928536,19.1623168" id="Fill-91" fill="#A59D96"></path>
        </g>
    </g>
</svg>