<svg
    width="30"
    height="40"
    xmlns="http://www.w3.org/2000/svg"
    xmlns-xlink="http://www.w3.org/1999/xlink"
>
    <g fill="none" fill-rule="evenodd">
        <g>
            <rect fill="#D8A25C" y="3.3" width="30" height="35.8" rx="1" />
            <path fill="#E7E9E9" d="M3.3 6.5h23.3v29.3H3.3z" />
            <path
                d="M22.5 14.6h-10a.8.8 0 01-.8-.8c0-.4.3-.8.8-.8h10c.5 0 .8.4.8.8 0 .5-.3.8-.8.8"
                fill="#59514B"
            />
            <path
                d="M22.6 6.5H7.4c-.4 0-.7-.3-.7-.6V3.3c0-.4.3-.7.7-.7h3.9C11.6 1.1 13.2 0 15 0c1.8 0 3.4 1.1 3.7 2.6h3.9c.4 0 .7.3.7.7v2.6c0 .3-.3.6-.7.6z"
                fill="#005B82"
            />
            <path
                d="M22.5 19.5h-10a.8.8 0 01-.8-.8c0-.5.3-.8.8-.8h10c.5 0 .8.3.8.8 0 .4-.3.8-.8.8M22.5 24.4h-10a.8.8 0 01-.8-.8c0-.5.3-.8.8-.8h10c.5 0 .8.3.8.8 0 .4-.3.8-.8.8M22.5 29.3h-10a.8.8 0 01-.8-.9c0-.4.3-.8.8-.8h10c.5 0 .8.4.8.8 0 .5-.3.9-.8.9M8.9 14.6H7.8c-.6 0-1.1-.3-1.1-.8 0-.4.5-.8 1-.8H9c.6 0 1.1.4 1.1.8 0 .5-.5.8-1.1.8M8.9 19.5H7.8c-.6 0-1.1-.4-1.1-.8 0-.5.5-.8 1-.8H9c.6 0 1.1.3 1.1.8 0 .4-.5.8-1.1.8M8.9 24.4H7.8c-.6 0-1.1-.4-1.1-.8 0-.5.5-.8 1-.8H9c.6 0 1.1.3 1.1.8 0 .4-.5.8-1.1.8M8.9 29.3H7.8c-.6 0-1.1-.4-1.1-.9 0-.4.5-.8 1-.8H9c.6 0 1.1.4 1.1.8 0 .5-.5.9-1.1.9"
                fill="#59514B"
            />
        </g>
    </g>
</svg>