<?xml version="1.0" encoding="UTF-8"?>
<svg width="62px" height="62px" viewBox="0 0 62 62" version="1.1" xmlns="http://www.w3.org/2000/svg" xmlns:xlink="http://www.w3.org/1999/xlink">
    <!-- Generator: Sketch 53.2 (72643) - https://sketchapp.com -->
    <title>coin-receive</title>
    <desc>Created with Sketch.</desc>
    <g id="Page-1" stroke="none" stroke-width="1" fill="none" fill-rule="evenodd">
        <g id="coin-receive" fill-rule="nonzero">
            <path d="M11.4461537,33.0666667 L1.27179474,33.0666667 C0.569763975,33.0666667 -1.28000102e-07,33.6699464 -1.28000102e-07,34.413273 L-1.28000102e-07,54.6123681 C-1.28000102e-07,55.3556946 0.569763975,55.9589744 1.27179474,55.9589744 L11.4461537,55.9589744 C12.1456409,55.9589744 12.7179486,55.3556946 12.7179486,54.6123681 L12.7179486,34.413273 C12.7179486,33.6699464 12.1456409,33.0666667 11.4461537,33.0666667 Z" id="Fill/coin-receive" fill="#669DB4"></path>
            <g id="Group" transform="translate(33.066667, 0.000000)">
                <path d="M8.9025641,17.8051282 C13.8116923,17.8051282 17.8051282,13.8116923 17.8051282,8.9025641 C17.8051282,3.99089231 13.8116923,0 8.9025641,0 C3.9934359,0 0,3.99089231 0,8.9025641 C0,13.8116923 3.9934359,17.8051282 8.9025641,17.8051282 Z" id="Path" fill="#FFBD66"></path>
                <path d="M7.63076923,6.35897436 C7.63076923,5.65694359 8.20053333,5.08717949 8.9025641,5.08717949 C9.60205128,5.08717949 10.174359,5.65694359 10.174359,6.35897436 L10.174359,11.4461538 C10.174359,12.1481846 9.60205128,12.7179487 8.9025641,12.7179487 C8.20053333,12.7179487 7.63076923,12.1481846 7.63076923,11.4461538 L7.63076923,6.35897436 Z" id="Path" fill="#B26D14"></path>
            </g>
            <g id="Group-Copy" transform="translate(17.805128, 15.261538)">
                <path d="M8.9025641,17.8051282 C13.8116923,17.8051282 17.8051282,13.8116923 17.8051282,8.9025641 C17.8051282,3.99089231 13.8116923,0 8.9025641,0 C3.9934359,0 0,3.99089231 0,8.9025641 C0,13.8116923 3.9934359,17.8051282 8.9025641,17.8051282 Z" id="Path" fill="#FFBD66"></path>
                <path d="M7.63076923,6.35897436 C7.63076923,5.65694359 8.20053333,5.08717949 8.9025641,5.08717949 C9.60205128,5.08717949 10.174359,5.65694359 10.174359,6.35897436 L10.174359,11.4461538 C10.174359,12.1481846 9.60205128,12.7179487 8.9025641,12.7179487 C8.20053333,12.7179487 7.63076923,12.1481846 7.63076923,11.4461538 L7.63076923,6.35897436 Z" id="Path" fill="#B26D14"></path>
            </g>
            <path d="M27.0656479,46.4264287 C26.8742723,46.7298979 26.9651421,47.1310489 27.2686112,47.3224244 C27.2969611,47.3403025 27.3266523,47.3559599 27.3574184,47.3692562 L35.6102564,50.9359002 L50.8717949,45.4504468 C54.333,44.4653164 57.5960646,43.1058626 60.6628229,46.1548284 C60.9580049,46.4511473 61.0938409,46.8722321 61.0311475,47.285519 C60.9632295,47.7014052 60.7020065,48.0549085 60.3258453,48.2420572 C53.108253,51.8316751 48.2573414,54.5895204 44.7151572,56.6039693 C39.3626974,59.6477365 36.8000995,61.0461538 33.8038715,61.0461538 C31.2909059,61.0461538 28.4723094,60.0610234 23.4359294,58.238922 C20.8759439,57.3109759 17.6890229,56.1594909 13.6113315,54.8052615 C13.0784365,54.6285098 12.7179487,54.1320456 12.7179487,53.5731986 L12.7179487,36.8999639 C12.7179487,36.1880454 13.3663745,35.6102564 14.1653276,35.6102564 L18.5074644,35.6102564 C22.4433185,35.6102564 25.4654193,36.8765071 27.5501992,38.1538462 L39.425641,38.1538462 C41.5328198,38.1538462 43.2410256,39.862052 43.2410256,41.9692308 C43.2410256,44.0764095 41.5328198,45.7846154 39.425641,45.7846154 L28.2291691,45.7846154 C27.7568633,45.7846154 27.3175838,46.0269276 27.0656479,46.4264287 Z" id="Path" fill="#FFE5C2"></path>
        </g>
    </g>
</svg>