<?xml version="1.0" encoding="UTF-8"?>
<svg width="60px" height="53px" viewBox="0 0 60 53" version="1.1" xmlns="http://www.w3.org/2000/svg" xmlns:xlink="http://www.w3.org/1999/xlink">
    <!-- Generator: Sketch 53.2 (72643) - https://sketchapp.com -->
    <title>gjenstander/penger/ lommebok 2</title>
    <desc>Created with Sketch.</desc>
    <g id="Page-1" stroke="none" stroke-width="1" fill="none" fill-rule="evenodd">
        <g id="Artboard" transform="translate(-55.000000, -53.000000)">
            <g id="gjenstander/penger/-lommebok-2" transform="translate(55.000000, 43.000000)">
                <g id="Group-4" transform="translate(0.000000, 10.000000)">
                    <rect id="Rectangle" fill="#59514B" x="0" y="6.88652853" width="60" height="46" rx="2.09952"></rect>
                    <g id="Group-2" transform="translate(29.410622, 19.326808) rotate(-16.000000) translate(-29.410622, -19.326808) translate(6.077289, 6.000000)">
                        <rect id="Rectangle-10-Copy-2" fill="#E3B0A8" x="0" y="0" width="46.6666667" height="26.6536151"></rect>
                        <rect id="Rectangle-10-Copy-3" fill="#F1D8D4" x="36.9444444" y="0" width="5.83333333" height="26.6536151"></rect>
                    </g>
                    <g id="Group" transform="translate(30.336320, 26.068317) rotate(-8.000000) translate(-30.336320, -26.068317) translate(6.169653, 13.254079)">
                        <rect id="Rectangle-10" fill="#C2EAF7" x="0" y="0" width="48.3333333" height="25.6284761"></rect>
                        <rect id="Rectangle-10-Copy" fill="#E0F5FB" x="38.2638889" y="0" width="6.04166667" height="25.6284761"></rect>
                    </g>
                    <g id="Group-2-Copy-2" transform="translate(5.000000, 18.685416)">
                        <g id="Group-3">
                            <rect id="Rectangle-10-Copy-2" fill="#9BD0B0" x="0" y="0" width="49.6551724" height="17.55"></rect>
                            <rect id="Rectangle-10-Copy-3" fill="#CDE7D8" x="39.3103448" y="0" width="6.20689655" height="17.55"></rect>
                        </g>
                    </g>
                    <path d="M17.9746094,24.6854162 C22.0591147,24.6854162 22.9027583,33.1064688 30,33.1064688 C37.0972417,33.1064688 37.0972417,24.6854162 42,24.6854162 L58,24.6854162 C59.1045695,24.6854162 60,25.6279746 60,26.7906793 L60,42.580153 C60,43.7428578 59.1045695,44.6854162 58,44.6854162 L2,44.6854162 C0.8954305,44.6854162 1.3527075e-16,43.7428578 0,42.580153 L0,26.7906793 C-1.3527075e-16,25.6279746 0.8954305,24.6854162 2,24.6854162 C10.4113104,24.6854162 15.7361802,24.6854162 17.9746094,24.6854162 Z" id="Path" fill="#59514B"></path>
                </g>
            </g>
        </g>
    </g>
</svg>