<?xml version="1.0" encoding="UTF-8"?>
<svg width="24px" height="30px" viewBox="0 0 24 30" version="1.1" xmlns="http://www.w3.org/2000/svg" xmlns:xlink="http://www.w3.org/1999/xlink">
    <!-- Generator: Sketch 56 (81588) - https://sketch.com -->
    <title>Outline/17-files/files-3</title>
    <desc>Created with Sketch.</desc>
    <g id="Page-1" stroke="none" stroke-width="1" fill="none" fill-rule="evenodd">
        <g id="GDPR-Andre-opplysning-Logging-av-persondata-Leverte-data-Copy-3" transform="translate(-333.000000, -660.000000)" fill="#0067C5">
            <g id="Outline/17-files/files-3" transform="translate(329.000000, 659.000000)">
                <path d="M27.948,8.41066664 C27.9146667,8.3293333 27.8653334,8.25599997 27.804,8.19466663 L21.1386667,1.52933327 C21.0773334,1.46799994 21.004,1.41866661 20.9226667,1.38533327 C20.8426667,1.35199994 20.756,1.33333327 20.6666667,1.33333327 L9.99999995,1.33333327 C9.63199997,1.33333327 9.33333331,1.63199994 9.33333331,1.99999994 L9.33333331,3.99999995 L7.3333333,3.99999995 C6.9653333,3.99999995 6.66666663,4.29866662 6.66666663,4.66666662 L6.66666663,6.66666663 L4.66666662,6.66666663 C4.29866662,6.66666663 3.99999995,6.9653333 3.99999995,7.33333327 L3.99999995,30.0000001 C3.99999995,30.3680001 4.29866662,30.6666667 4.66666662,30.6666667 L21.9999999,30.6666667 C22.368,30.6666667 22.6666667,30.3680001 22.6666667,30.0000001 L22.6666667,28.0000001 L24.6666667,28.0000001 C25.0346667,28.0000001 25.3333334,27.7013334 25.3333334,27.3333333 L25.3333334,25.3333333 L27.3333334,25.3333333 C27.7013334,25.3333333 27.9999999,25.0346667 27.9999999,24.6666667 L27.9999999,8.66666664 C27.9999999,8.5773333 27.9813334,8.49066664 27.948,8.41066664 Z M21.3333334,3.60933328 L25.724,7.99999997 L21.3333334,7.99999997 L21.3333334,3.60933328 Z M21.3333333,29.3333334 L5.33333329,29.3333334 L5.33333329,7.99999997 L6.66666663,7.99999997 L6.66666663,27.3333334 C6.66666663,27.7013334 6.9653333,28 7.33333329,28 L21.3333333,28 L21.3333333,29.3333334 Z M24,26.6666667 L7.99999997,26.6666667 L7.99999997,5.33333329 L9.33333331,5.33333329 L9.33333331,24.6666667 C9.33333331,25.0346667 9.63199997,25.3333333 9.99999997,25.3333333 L24,25.3333333 L24,26.6666667 Z M10.6666666,24 L10.6666666,2.66666661 L20,2.66666661 L20,8.66666661 C20,9.03466664 20.2986667,9.33333331 20.6666666,9.33333331 L26.6666666,9.33333331 L26.6666666,24 L10.6666666,24 Z" id="line/files-3"></path>
            </g>
        </g>
    </g>
</svg>