<svg xmlns="http://www.w3.org/2000/svg" xmlns:xlink="http://www.w3.org/1999/xlink" width="90" height="90" viewBox="0 0 90 90">
    <defs>
        <circle id="a" cx="45" cy="45" r="45"/>
        <path id="c" d="M36.358 2.804C41.911 5.793 50 13.084 50 19.862V31c0 6.627-5.373 12-12 12H0V19.862C0 13.355 7.327 6.375 12.77 3.183c.999 1.73 3.635 8.622 11.659 8.622 7.964 0 11.767-7.289 11.93-9z"/>
        <path id="e" d="M1.478 28.737a.508.508 0 0 0 .076-.255v-1.87c-.134-5.205 1.66-7.622 3.138-9.458 0 0-.898 3.999-.273 3.167 3.534-4.696 19.906-1.48 23.302-7.54.427 3.336-3.858 4.343-3.858 4.343 3.416.651 6.376-.734 7.178-2.378.264 1.34-.547 2.23-1.734 3.147 4.2-.8 4.267-3.71 4.267-3.71.598 3.86 4.903 2.378 4.903 8.698v5.601c0 .287.226.518.507.518h.502c.28 0 .508-.23.508-.518v-4.16C40.254 9.748 32.092 0 20.858 0 10.135 0 0 9.719.006 22.585c0 .01-.006.022-.006.033v5.864c0 .287.227.518.506.518h.54a.493.493 0 0 0 .38-.186"/>
    </defs>
    <g fill="none" fill-rule="evenodd">
        <mask id="b" fill="#fff">
            <use xlink:href="#a"/>
        </mask>
        <g mask="url(#b)">
            <path fill="#B7B1A9" d="M-7.2 90h113V0h-113z"/>
        </g>
        <g mask="url(#b)">
            <path fill="#E7E5E2" d="M32.956 56.96c.946 1.513 3.604 28.115 11.58 28.115 7.98 0 11.582-27.096 11.582-28.507-12.216-7.002-23.162.391-23.162.391z"/>
            <g transform="translate(19.985 53.554)">
                <mask id="d" fill="#fff">
                    <use xlink:href="#c"/>
                </mask>
                <use fill="#D8A25D" xlink:href="#c"/>
                <g mask="url(#d)">
                    <path fill="#5C4378" d="M-30.556 68.142h117v-87h-117z"/>
                </g>
                <g mask="url(#d)">
                    <path fill="#D2242A" d="M44.52 27.826H29.887a1.173 1.173 0 0 1-1.182-1.165v-7.753c0-.643.529-1.165 1.182-1.165H44.52c.653 0 1.183.522 1.183 1.165v7.753c0 .644-.53 1.165-1.183 1.165"/>
                    <path fill="#FFF" d="M40.853 23.25c0 1.904-1.598 3.45-3.57 3.45-1.975 0-3.574-1.546-3.574-3.45 0-1.904 1.599-3.45 3.574-3.45 1.972 0 3.57 1.546 3.57 3.45M32.655 24.77h-.696l.744-1.762h.699zM41.436 24.77h-.432l.744-1.762h.432zM42.627 24.77h-.182l.742-1.762h.183z"/>
                    <path fill="#C52D35" d="M34.57 24.762h.548c.028 0 .05-.02.05-.047v-1.65c0-.026-.022-.047-.05-.047h-.554a.062.062 0 0 0-.064.062l-.218.519c-.013.027.008.06.038.06h.157c.023 0 .043.016.043.041v1.015c0 .026.022.047.05.047"/>
                    <path fill="#C52D35" d="M35.76 24.762h.55c.03 0 .054-.02.054-.047v-1.65c0-.026-.025-.047-.053-.047h-.855a.063.063 0 0 0-.065.062l-.219.519-.075.06h.437c.098 0 .177.074.177.17v.886c0 .026.022.047.05.047M38.22 23.018h-.55a.049.049 0 0 0-.05.048v1.649c0 .026.023.048.05.048h.556a.062.062 0 0 0 .064-.063l.218-.519c.013-.028-.008-.059-.041-.059h-.152a.042.042 0 0 1-.043-.041v-1.015c0-.027-.025-.048-.052-.048"/>
                    <path fill="#C52D35" d="M35.958 24.762h.361a.063.063 0 0 0 .064-.061l.218-.52c.013-.028-.008-.06-.04-.06h-.153l-.45.641zM39.692 23.018h.654c.032 0 .054.03.04.057l-.692 1.66c-.005.018-.02.028-.04.028h-.592l.587-1.717a.046.046 0 0 1 .043-.028"/>
                    <path fill="#C52D35" d="M38.872 23.018h-.925c-.065 0 .266.061.29.119l.653 1.57a.088.088 0 0 0 .084.056h.561l-.577-1.686a.089.089 0 0 0-.086-.06M37.664 23.577c0 .352-.046.373-.046.373s-.052-.337-.32-.337c-.265 0-.325.149-.325.26 0 .129.135.25.21.25h.481l-.284.607a.058.058 0 0 1-.053.033h-.218c-.23 0-.827-.29-.827-.851 0-.562.444-.894.815-.894.306 0 .567.203.567.56z"/>
                    <path fill="#5A1F57" d="M38.083 19.343h-1.517a.2.2 0 0 1-.202-.196V18.9a.2.2 0 0 1 .202-.195h1.517a.2.2 0 0 1 .203.195v.247a.2.2 0 0 1-.203.196"/>
                    <path fill="#C2B5CF" d="M36.886 19.118h.878v-2.292h-.878z"/>
                </g>
            </g>
            <path fill="#E7E5E2" d="M63.728 42.689c-2.314 9.552-9.82 16.55-18.724 16.55-8.905 0-16.411-7-18.725-16.553-.225.084-.474.13-.735.13-1.022 0-1.853-.714-1.853-1.6V34.76c0-.885.831-1.6 1.853-1.6.068 0 .136.003.202.009 1.365-11.016 9.466-19.478 19.258-19.478 9.791 0 17.893 8.461 19.258 19.477.064-.006.128-.009.194-.009 1.024 0 1.853.716 1.853 1.601v6.458c0 .885-.829 1.6-1.853 1.6-.258 0-.504-.046-.728-.128z"/>
            <g>
                <path fill="#635E59" d="M37.62 35.614c-1.34.101-1.716-1.885-1.313-3.182.077-.245.521-1.364 1.307-1.364.785 0 1.132.611 1.18.716.577 1.265.294 3.718-1.173 3.83M52.588 35.614c1.342.101 1.717-1.885 1.313-3.182-.076-.245-.52-1.364-1.306-1.364a1.32 1.32 0 0 0-1.18.716c-.577 1.265-.295 3.718 1.173 3.83"/>
                <path stroke="#D1BFA3" stroke-linecap="round" d="M45.459 37.437c.802-.124 1.583-.094 1.95.359.894 1.103.638 2.378-.868 3.32-.753.47-1.819.663-2.472.372"/>
                <path stroke="#593A32" stroke-linecap="round" stroke-width="1.013" d="M51.237 44.871s-1.694 3.899-6.408 3.753c-4.714-.145-6.481-3.753-6.481-3.753"/>
            </g>
            <g>
                <g transform="translate(24.618 9.981)">
                    <mask id="f" fill="#fff">
                        <use xlink:href="#e"/>
                    </mask>
                    <use fill="#F6B873" xlink:href="#e"/>
                    <g fill="#F6B873" mask="url(#f)">
                        <path d="M-10.91-24.323h63v74h-63z"/>
                    </g>
                </g>
            </g>
        </g>
    </g>
</svg>
