<svg xmlns="http://www.w3.org/2000/svg" xmlns:xlink="http://www.w3.org/1999/xlink" width="202" height="168" viewBox="0 0 202 168">
    <defs>
        <path id="a" d="M0 7.577V43.2A2.29 2.29 0 0 0 2.28 45.5h30.54a2.29 2.29 0 0 0 2.28-2.3V2.3A2.29 2.29 0 0 0 32.82 0H7.938L0 7.577z"/>
        <circle id="c" cx="24.461" cy="24.461" r="24.461"/>
        <path id="e" d="M33.943 16.98h-.03C33.914 7.601 27.237 0 18.997 0 10.758 0 4.08 7.602 4.08 16.98v.008C4.077 24.996 0 29.575 0 29.575s4.027 5.002 18.997 5.002H19.026c14.972 0 18.998-5.002 18.998-5.002s-4.08-4.582-4.08-12.596"/>
        <path id="g" d="M22.269.101c3.452 1.661 8.82 6.161 8.82 10.333v13.79H0v-13.79C0 6.41 4.912 2.078 8.324.287a5.698 5.698 0 0 0-.264.165c.588.953 2.168 5.181 7.125 5.181 4.958 0 7.268-4.54 7.268-5.427l-.184-.105z"/>
        <path id="i" d="M69.624.323C80.417 5.631 97.2 20.01 97.2 33.341V77.4H0V33.341C0 20.477 15.356 6.641 26.025.916c-.54.33-.825.53-.825.53C27.038 4.488 31.98 18 47.478 18 62.979 18 70.2 3.495 70.2.66a48.006 48.006 0 0 0-.576-.337z"/>
        <path id="k" d="M2.852 55.295a.976.976 0 0 0 .147-.49v-3.6c-.259-10.015 3.205-14.667 6.055-18.2 0 0-1.732 7.696-.527 6.095 6.822-9.035 38.417-2.847 44.971-14.507.825 6.42-7.446 8.355-7.446 8.355 6.594 1.254 12.306-1.41 13.854-4.575.51 2.58-1.056 4.292-3.347 6.056 8.104-1.539 8.235-7.139 8.235-7.139 1.154 7.428 9.461 4.576 9.461 16.736v10.778c0 .552.437.996.979.996h.97c.539 0 .98-.444.98-.996V46.8C77.685 18.756 61.933 0 40.252 0 19.559 0 0 18.7.013 43.458c-.002.02-.013.041-.013.063v11.283c0 .552.439.996.977.996h1.042a.953.953 0 0 0 .734-.357"/>
    </defs>
    <g fill="none" fill-rule="evenodd">
        <path fill="#ABB2BA" d="M59.246 136.182v11.971a4.56 4.56 0 0 0 4.562 4.562h132.883a4.562 4.562 0 0 0 4.562-4.562v-11.971H59.246z"/>
        <path fill="#506572" d="M201.253 136.182V61.715a4.562 4.562 0 0 0-4.562-4.562H63.808a4.56 4.56 0 0 0-4.562 4.562v74.467h142.007z"/>
        <path fill="#627282" d="M196.678 131.652V63.891a2.331 2.331 0 0 0-2.331-2.331H66.152a2.331 2.331 0 0 0-2.33 2.33v67.762h132.856z"/>
        <path fill="#ABB2BA" d="M146.896 165.097h-33.293v-12.38h33.293z"/>
        <path fill="#ABB2BA" d="M159.734 167.362h-58.97v-4.01h58.97z"/>
        <path fill="#959BA5" d="M129.173 145.525a1.077 1.077 0 1 0 2.154-.001 1.077 1.077 0 0 0-2.154 0"/>
        <g>
            <g transform="matrix(-1 0 0 1 114.9 78.14)">
                <mask id="b" fill="#fff">
                    <use xlink:href="#a"/>
                </mask>
            </g>
            <path fill="#C9C9C9" d="M106.89 78.14v5.28a2.301 2.301 0 0 0 2.302 2.302h5.708l-8.01-7.582z"/>
            <g fill="#8F9395">
                <path d="M108.4 95.65H86.431v-1.91H108.4zM108.4 99.55H86.431v-1.91H108.4zM108.4 104.1H86.512v-1.91H108.4zM108.4 108H86.512v-1.91H108.4zM108.4 112.55H86.512v-1.91H108.4zM108.4 91.1H86.431v-1.91H108.4z"/>
            </g>
        </g>
        <g>
            <g transform="matrix(-1 0 0 1 181.2 74.233)">
                <mask id="d" fill="#fff">
                    <use xlink:href="#c"/>
                </mask>
                <g mask="url(#d)">
                    <path fill="#99BDCD" d="M-3.914 49h62.177V0H-3.914z"/>
                </g>
                <g mask="url(#d)">
                    <g transform="translate(5.029 5.912)">
                        <mask id="f" fill="#fff">
                            <use xlink:href="#e"/>
                        </mask>
                        <use fill="#E57F68" xlink:href="#e"/>
                        <g fill="#D2654C" mask="url(#f)">
                            <path d="M0-1.132h38.87v44.724H0z"/>
                        </g>
                    </g>
                    <path fill="#E7E5E2" d="M16.908 36.264c.578.924 2.2 17.15 7.071 17.15 4.872 0 7.071-16.528 7.071-17.388-7.458-4.272-14.142.238-14.142.238z"/>
                    <g transform="translate(8.989 35.877)">
                        <mask id="h" fill="#fff">
                            <use xlink:href="#g"/>
                        </mask>
                        <use fill="#D8A25D" xlink:href="#g"/>
                        <g fill="#0067C5" mask="url(#h)">
                            <path d="M-18.999 40.227H54.21v-56h-73.209z"/>
                        </g>
                    </g>
                    <path fill="#E7E5E2" d="M12.688 21.475s-.06.337-.136.282a.918.918 0 0 0-.343-.07c-.525 0-.951.44-.952.984l-.006 3.764c0 .544.424.985.95.987a.92.92 0 0 0 .56-.193c1.27 6.061 5.798 10.342 11.198 10.351 5.4.01 9.941-4.257 11.23-10.314.157.12.35.193.56.194.525 0 .952-.44.952-.983l.006-3.765c0-.544-.424-.986-.949-.987a.918.918 0 0 0-.343.069C23.238 23.237 18.99 14.96 18.631 14.96c0 0-5.092 4.766-5.943 6.515z"/>
                    <g>
                        <path fill="#593A32" fill-rule="nonzero" d="M26.709 30.34a1.471 1.471 0 0 1-.105.205 2.368 2.368 0 0 1-.384.487c-.56.547-1.355.82-2.456.67-.547-.073-.932-.34-1.197-.746a2.132 2.132 0 0 1-.307-.78.277.277 0 0 0-.31-.236.273.273 0 0 0-.241.304c.033.26.145.63.39 1.004.347.534.87.895 1.588.993 1.277.174 2.245-.16 2.926-.825.336-.327.53-.656.618-.888a.27.27 0 0 0-.166-.349.28.28 0 0 0-.356.162z"/>
                        <path fill="#635E59" d="M20.762 24.78c.594.191 1.023-.886 1.01-1.655-.002-.146-.056-.819-.412-.898-.355-.079-.591.23-.627.284-.427.652-.62 2.058.03 2.268M27.434 24.89c.734.118 1.038-1.005.88-1.767-.03-.145-.22-.807-.653-.842a.731.731 0 0 0-.685.358c-.38.7-.345 2.12.458 2.25"/>
                        <path fill="#D1BFA3" fill-rule="nonzero" d="M22.679 25.588a1.333 1.333 0 0 1-1.173.299c-.443-.06-.743-.014-.853.117-.43.518-.293 1.066.447 1.516.389.236.924.32 1.208.197.138-.06.3 0 .362.136a.266.266 0 0 1-.14.354c-.469.203-1.189.09-1.72-.232-1.005-.612-1.235-1.525-.582-2.31.268-.32.737-.394 1.354-.31l.078.016a.785.785 0 0 0 .652-.182c.112-.099.286-.09.387.02.102.11.093.28-.02.379z"/>
                    </g>
                </g>
            </g>
        </g>
        <g>
            <path fill="#E7E5E2" d="M25.676 91.66c1.833 2.945 6.98 54.697 22.427 54.697 15.451 0 22.426-52.714 22.426-55.458-23.655-13.623-44.853.76-44.853.76z"/>
            <g transform="translate(.559 90.432)">
                <mask id="j" fill="#fff">
                    <use xlink:href="#i"/>
                </mask>
                <use fill="#D8A25D" xlink:href="#i"/>
                <g mask="url(#j)">
                    <path fill="#5C4378" d="M-59.4 129.6h226.8v-180H-59.4z"/>
                </g>
            </g>
            <path fill="#D2242A" d="M88.304 140.832H60.411c-1.244 0-2.252-1.023-2.252-2.287v-15.224c0-1.264 1.008-2.289 2.252-2.289h27.893c1.245 0 2.255 1.025 2.255 2.289v15.224c0 1.264-1.01 2.287-2.255 2.287"/>
            <path fill="#FFF" d="M81.314 131.847c0 3.739-3.046 6.774-6.804 6.774-3.764 0-6.812-3.035-6.812-6.774s3.048-6.774 6.812-6.774c3.758 0 6.804 3.035 6.804 6.774M65.69 134.833h-1.327l1.418-3.46h1.331zM82.425 134.833h-.823l1.419-3.46h.822zM84.696 134.833h-.349l1.416-3.46h.348z"/>
            <path fill="#C52D35" d="M69.338 134.816h1.045a.094.094 0 0 0 .096-.094v-3.238a.094.094 0 0 0-.096-.094h-1.056a.12.12 0 0 0-.121.123l-.416 1.019a.082.082 0 0 0 .072.116h.3c.044 0 .082.033.082.082v1.992c0 .053.042.094.094.094"/>
            <path fill="#C52D35" d="M71.609 134.816h1.048c.054 0 .1-.041.1-.094v-3.238c0-.052-.046-.094-.1-.094h-1.63a.122.122 0 0 0-.123.123l-.417 1.019-.144.116h.834c.186 0 .338.146.338.334v1.74c0 .053.041.094.094.094M76.296 131.39h-1.048a.095.095 0 0 0-.096.094v3.239c0 .052.043.093.096.093h1.06a.12.12 0 0 0 .12-.122l.416-1.019c.026-.056-.014-.116-.078-.116h-.29a.08.08 0 0 1-.08-.081v-1.994c0-.052-.049-.093-.1-.093"/>
            <path fill="#C52D35" d="M71.985 134.816h.688a.122.122 0 0 0 .122-.12l.415-1.023a.083.083 0 0 0-.076-.116h-.291l-.858 1.26zM79.1 131.39h1.247c.06 0 .104.058.078.114l-1.32 3.26c-.009.033-.04.052-.076.052h-1.128l1.118-3.37a.088.088 0 0 1 .082-.055"/>
            <path fill="#C52D35" d="M77.538 131.39h-1.762c-.125 0 .506.121.551.234l1.246 3.084c.026.069.09.108.16.108h1.07l-1.1-3.31a.17.17 0 0 0-.165-.115M75.237 132.49c0 .69-.088.73-.088.73s-.099-.66-.612-.66c-.503 0-.618.292-.618.51 0 .252.257.489.4.489h.918l-.542 1.194a.11.11 0 0 1-.1.063h-.417c-.437 0-1.576-.569-1.576-1.67 0-1.104.847-1.755 1.553-1.755.583 0 1.082.399 1.082 1.098z"/>
            <path fill="#5A1F57" d="M76.035 124.175h-2.89a.385.385 0 0 1-.387-.385v-.485c0-.211.172-.384.386-.384h2.89c.215 0 .387.173.387.384v.485a.385.385 0 0 1-.386.385"/>
            <path fill="#C2B5CF" d="M73.753 123.732h1.674v-4.5h-1.674z"/>
            <path fill="#E7E5E2" d="M85.22 63.88C80.701 82.343 66.195 95.856 49 95.856c-17.198 0-31.702-13.513-36.22-31.977a4.053 4.053 0 0 1-1.456.267c-1.98 0-3.589-1.39-3.589-3.113V48.472c0-1.722 1.61-3.115 3.589-3.115.128 0 .254.006.379.017C14.307 23.952 30.012 7.482 48.999 7.482s34.693 16.47 37.298 37.892c.125-.011.251-.017.38-.017 1.983 0 3.588 1.393 3.588 3.115v12.562c0 1.722-1.605 3.113-3.589 3.113a4.047 4.047 0 0 1-1.457-.268z"/>
            <g>
                <path fill="#635E59" d="M34.772 50.07c-2.604.197-3.333-3.642-2.55-6.15.15-.475 1.011-2.637 2.538-2.637 1.524 0 2.198 1.18 2.291 1.384 1.122 2.445.57 7.188-2.279 7.404M63.841 50.07c2.605.197 3.334-3.642 2.55-6.15-.149-.475-1.01-2.637-2.537-2.637-1.525 0-2.198 1.18-2.292 1.384-1.12 2.445-.572 7.188 2.28 7.404"/>
                <path stroke="#D1BFA3" stroke-linecap="round" stroke-width="1.8" d="M49.995 53.596c1.557-.24 3.075-.182 3.787.693 1.737 2.133 1.239 4.597-1.686 6.419-1.462.909-3.532 1.281-4.8.72"/>
                <path stroke="#593A32" stroke-linecap="round" stroke-width="1.823" d="M61.217 67.969s-3.29 7.536-12.445 7.256c-9.155-.281-12.588-7.256-12.588-7.256"/>
            </g>
            <g>
                <g transform="translate(9.53 .268)">
                    <mask id="l" fill="#fff">
                        <use xlink:href="#k"/>
                    </mask>
                    <use fill="#F6B873" xlink:href="#k"/>
                    <g fill="#F6B873" mask="url(#l)">
                        <path d="M-21.053-46.8h121.195V95.4H-21.053z"/>
                    </g>
                </g>
            </g>
            <g fill="#979797" fill-rule="nonzero">
                <path d="M45.588 45.2h-16.2a5.4 5.4 0 0 0-5.4 5.4v3.6a5.4 5.4 0 0 0 5.4 5.4h5.4c5.965 0 10.8-4.835 10.8-10.8v-3.6zm-16.2-1.8h18v5.4c0 6.959-5.641 12.6-12.6 12.6h-5.4a7.2 7.2 0 0 1-7.2-7.2v-3.6a7.2 7.2 0 0 1 7.2-7.2z"/>
                <path d="M45.588 45.2v-1.8h9v1.8zM45.588 50.15v-1.8h9v1.8zM14.088 46.55a.9.9 0 1 1 0-1.8h10.8a.9.9 0 1 1 0 1.8h-10.8zM75.288 46.475a.9.9 0 1 1 0-1.8h10.8a.9.9 0 1 1 0 1.8h-10.8z"/>
                <path d="M54.588 45.2v3.6c0 5.965 4.836 10.8 10.8 10.8h5.4a5.4 5.4 0 0 0 5.4-5.4v-3.6a5.4 5.4 0 0 0-5.4-5.4h-16.2zm16.2-1.8a7.2 7.2 0 0 1 7.2 7.2v3.6a7.2 7.2 0 0 1-7.2 7.2h-5.4c-6.959 0-12.6-5.641-12.6-12.6v-5.4h18z"/>
            </g>
        </g>
    </g>
</svg>
