<svg width="61px" height="79px" viewBox="0 0 61 79" version="1.1" xmlns="http://www.w3.org/2000/svg" xmlns:xlink="http://www.w3.org/1999/xlink">
    <!-- Generator: Sketch 51.2 (57519) - http://www.bohemiancoding.com/sketch -->
    <desc>Created with Sketch.</desc>
    <defs>
        <circle id="path-1" cx="46" cy="46" r="46"></circle>
        <path d="M53.5544118,26.6179 L53.5076471,26.6179 C53.5076471,11.91735 42.9714706,0 29.9717647,0 C16.9738235,0 6.43764706,11.91735 6.43764706,26.6179 L6.43764706,26.6312125 C6.43323529,39.1857875 0,46.3638875 0,46.3638875 C0,46.3638875 6.35294118,54.2058375 29.9726471,54.2058375 C29.9805882,54.2058375 29.9885294,54.2058375 29.9964706,54.2058375 C30.0044118,54.2058375 30.0105882,54.2058375 30.0185294,54.2058375 C53.64,54.2058375 59.9929412,46.3638875 59.9929412,46.3638875 C59.9929412,46.3638875 53.5544118,39.18135 53.5544118,26.6179" id="path-3"></path>
        <path d="M34.4782199,0.420450456 C39.7443465,3.19788153 47.4146341,9.97479375 47.4146341,16.2735691 L47.4146341,28.7785714 C47.4146341,33.7491342 43.3851969,37.7785714 38.4146341,37.7785714 L0,37.7785714 L0,16.2735691 C0,10.2267523 6.94773537,3.73928555 12.1096718,0.772664144 C13.0567468,2.37947035 15.5569688,8.78571429 23.165546,8.78571429 C30.7182511,8.78571429 34.3243322,2.01156841 34.4782199,0.420450456 Z" id="path-5"></path>
    </defs>
    <g id="Desktop/tablet" stroke="none" stroke-width="1" fill="none" fill-rule="evenodd">
        <g id="GDPR-personalia" transform="translate(-244.000000, -598.000000)">
            <g id="spotlight/-person" transform="translate(229.000000, 585.000000)">
                <g id="-80/-Blå">
                    <mask id="mask-2" fill="white">
                        <use xlink:href="#path-1"></use>
                    </mask>
                    <g id="Mask"></g>
                    <g id="mennesker/kvinne/-forfra/-C" mask="url(#mask-2)">
                        <g transform="translate(13.800000, 7.360000)" id="Group-2">
                            <g transform="translate(1.882353, 5.687500)">
                                <g id="mennesker/kvinne/⚙️/-hår/-halvlangt">
                                    <g id="hårfarge/-brunn">
                                        <mask id="mask-4" fill="white">
                                            <use xlink:href="#path-3"></use>
                                        </mask>
                                        <use id="Mask" fill="#E57F68" xlink:href="#path-3"></use>
                                        <g id="mennesker/⚙️/hårfarge/-rød" mask="url(#mask-4)" fill="#D2654C">
                                            <g transform="translate(0.000000, -1.775000)" id="hårfarge/-rød">
                                                <rect x="0" y="0" width="60.7067308" height="70.2966102"></rect>
                                            </g>
                                        </g>
                                    </g>
                                </g>
                                <g id="Group" transform="translate(6.176471, 14.218750)">
                                    <path d="M12.3529412,33.4787349 C13.2540868,34.9300719 15.7851031,60.4296875 23.3823529,60.4296875 C30.9812472,60.4296875 34.4117647,34.4559505 34.4117647,33.1039716 C22.7778429,26.3915865 12.3529412,33.4787349 12.3529412,33.4787349 Z" id="Combined-Shape" fill="#E7E5E2"></path>
                                    <g id="mennesker/⚙️/kropp/sideprofil/-rundt-hals" transform="translate(0.000000, 30.214844)">
                                        <g id="kropp/sideprofil/-rundt-hals" transform="translate(0.000000, 2.635714)">
                                            <g id="+20/-Blå">
                                                <mask id="mask-6" fill="white">
                                                    <use xlink:href="#path-5"></use>
                                                </mask>
                                                <use id="Mask" fill="#D8A25D" xlink:href="#path-5"></use>
                                                <g mask="url(#mask-6)">
                                                    <g transform="translate(-28.975610, -24.600000)">
                                                        <g>
                                                            <polygon id="Fill-66" fill="#0C5EA8" points="0 88 110.415789 88 110.415789 0 0 0"></polygon>
                                                        </g>
                                                    </g>
                                                </g>
                                            </g>
                                        </g>
                                    </g>
                                    <path d="M25.410538,0.0141310981 C25.6410277,1.79312597 27.0943464,3.16391533 28.8538111,3.16391533 C30.4530821,3.16391533 31.8007589,2.02933881 32.204582,0.485010789 C32.2104912,0.846723771 32.1657963,1.21979023 32.0632846,1.59663543 C31.039617,5.35344171 36.3192883,8.25058366 38.9077541,5.44224664 C39.3241789,5.23017818 39.8692637,5.2789786 40.5430085,5.58864791 C41.0325152,7.22056302 41.3701588,8.94177818 41.5350561,10.7268037 C41.6170469,10.7085656 41.7021033,10.6987261 41.7976613,10.6987261 C42.6255215,10.6987261 43.2352941,11.3996056 43.2352941,12.2643271 L43.2352941,17.9122002 C43.2352941,18.7778318 42.6377344,19.4778011 41.8072572,19.4778011 C41.4763748,19.4778011 41.2466486,19.3641329 40.9992985,19.1745168 C40.9805285,19.2578588 40.9613721,19.3410056 40.9418318,19.4239539 C39.6929899,25.0980748 36.6604725,29.7031408 32.6192922,32.4911758 C29.9091192,34.4332919 26.7522168,35.546875 23.3821785,35.546875 C21.0023284,35.546875 18.7287182,34.9915437 16.643634,33.9812653 C11.2439962,31.5326738 7.11485151,26.1417373 5.65445635,19.1719628 C5.4058366,19.3631117 5.18862145,19.4778011 4.85625611,19.4778011 C4.02665126,19.4778011 3.52941176,18.7778318 3.52941176,17.9122002 L3.52941176,12.0148096 C5.22575138,13.4261462 8.94150424,13.0046071 9.62781807,10.1301463 C10.3094014,7.27298437 13.7173182,6.31456929 15.6681459,8.43121995 C18.2574733,11.239557 22.7019828,8.54604893 21.6791769,4.79014681 C20.9744764,2.20247883 22.9973361,-0.207017814 25.410538,0.0141310981 Z" id="Combined-Shape" fill="#E7E5E2"></path>
                                </g>
                                <g id="mennesker/kvinne/⚙️/ansikt-profil/-blid" transform="translate(15.000000, 24.882812)">
                                    <g id="Group-2-Copy" transform="translate(2.647059, -1.038462)">
                                        <path d="M17.1758209,14.566354 C17.1438021,14.6348359 17.0621833,14.7748491 16.9241039,14.9622567 C16.6879281,15.2828054 16.381393,15.604737 15.9984025,15.905061 C14.6487049,16.9634334 12.7299501,17.494004 10.0756287,17.2038248 C8.75758212,17.0601915 7.82750394,16.544619 7.18996815,15.7586327 C6.91940885,15.4250735 6.72068743,15.0642569 6.58455738,14.7033339 C6.50391913,14.4895369 6.4630339,14.328053 6.45001665,14.2467937 C6.40384502,13.9585703 6.06862475,13.7542869 5.70128122,13.7905139 C5.33393769,13.8267408 5.07357642,14.0897598 5.11974806,14.3779832 C5.20025686,14.8805542 5.471216,15.5989508 6.05887224,16.3234431 C6.89714991,17.3569141 8.16039707,18.0571729 9.89089626,18.245753 C12.9689993,18.5822614 15.3044948,17.9364544 16.9461674,16.6491283 C17.7549438,16.0149221 18.2248239,15.3771792 18.4345321,14.9286537 C18.5620421,14.6559343 18.3836372,14.3537481 18.0360537,14.2537018 C17.6884702,14.1536555 17.3033308,14.2936346 17.1758209,14.566354 Z" id="Stroke-223" fill="#D19E9C" fill-rule="nonzero"></path>
                                        <path d="M5.48430882,5.87343462 C6.91636765,6.24520385 7.95136765,4.15893462 7.92092647,2.66978077 C7.91563235,2.38731923 7.78460294,1.08405 6.92695588,0.931396154 C6.07063235,0.777703846 5.50019118,1.37481923 5.41416176,1.48074231 C4.38445588,2.74247308 3.91857353,5.46531923 5.48430882,5.87343462" id="Fill-224" fill="#635E59"></path>
                                        <path d="M17.6009559,6.08642308 C19.3705147,6.31696154 20.10375,4.14138462 19.7225735,2.66573077 C19.6497794,2.38534615 19.1931618,1.10284615 18.1502206,1.03430769 C17.1059559,0.965769231 16.5738971,1.61480769 16.4984559,1.728 C15.58125,3.08319231 15.6646324,5.83407692 17.6009559,6.08642308" id="Fill-225" fill="#635E59"></path>
                                        <path d="M0.880777381,6.40018085 C1.04698845,6.51757773 1.22289304,6.61837324 1.40711135,6.7030584 C2.12454799,7.03286403 2.86924997,7.09394318 3.55354552,7.00488317 C3.65351096,6.99187282 3.73561728,6.97760031 3.70944905,6.97939148 C4.77724628,6.86228586 5.49978521,6.95230816 5.76463293,7.20733985 C6.80438388,8.209131 6.4717765,9.26998879 4.68767599,10.1417615 C3.74998917,10.5993234 2.45895126,10.7604111 1.77546814,10.5230825 C1.44125178,10.4070312 1.05041236,10.5255335 0.902503845,10.7877648 C0.754595332,11.0499961 0.905627676,11.3566547 1.23984403,11.472706 C2.3694694,11.8649504 4.10665006,11.6481958 5.3869986,11.0234255 C7.81129105,9.83883312 8.36609588,8.06927219 6.79079702,6.55148523 C6.14422458,5.92887663 5.01273674,5.78790273 3.52623272,5.95092804 C3.42053966,5.96791828 3.38335347,5.97438234 3.33696381,5.98041989 C2.93168149,6.03316675 2.48907415,5.99686487 2.07617848,5.80705673 C1.9690222,5.75779699 1.86566789,5.69857369 1.76628144,5.62837584 C1.49464763,5.43651761 1.07621808,5.45376022 0.831692889,5.66688829 C0.587167694,5.88001636 0.60914357,6.20832262 0.880777381,6.40018085 Z" id="Stroke-65-Copy" fill="#D1BFA3" fill-rule="nonzero" transform="translate(4.169975, 8.582270) scale(-1, 1) translate(-4.169975, -8.582270) "></path>
                                    </g>
                                </g>
                            </g>
                        </g>
                    </g>
                </g>
            </g>
        </g>
    </g>
</svg>

